<?xml version="1.0" standalone="yes"?>

<svg version="1.1" viewBox="0.0 0.0 800.0 600.0" fill="none" stroke="none" stroke-linecap="square" stroke-miterlimit="10" xmlns="http://www.w3.org/2000/svg" xmlns:xlink="http://www.w3.org/1999/xlink"><clipPath id="p.0"><path d="m0 0l800.0 0l0 600.0l-800.0 0l0 -600.0z" clip-rule="nonzero"></path></clipPath><g clip-path="url(#p.0)"><path fill="#000000" fill-opacity="0.0" d="m0 0l800.0 0l0 600.0l-800.0 0z" fill-rule="nonzero"></path><path fill="#000000" fill-opacity="0.0" d="m40.742783 48.115486l175.49606 0l0 60.503937l-175.49606 0z" fill-rule="nonzero"></path><path fill="#000000" d="m50.602158 70.660484l1.6875 -0.140625q0.125 1.015625 0.5625 1.671875q0.4375 0.65625 1.359375 1.0625q0.9375 0.40625 2.09375 0.40625q1.03125 0 1.8125 -0.3125q0.796875 -0.3125 1.1875 -0.84375q0.390625 -0.53125 0.390625 -1.15625q0 -0.640625 -0.375 -1.109375q-0.375 -0.484375 -1.234375 -0.8125q-0.546875 -0.21875 -2.421875 -0.65625q-1.875 -0.453125 -2.625 -0.859375q-0.96875 -0.515625 -1.453125 -1.265625q-0.46875 -0.75 -0.46875 -1.6875q0 -1.03125 0.578125 -1.921875q0.59375 -0.90625 1.703125 -1.359375q1.125 -0.46875 2.5 -0.46875q1.515625 0 2.671875 0.484375q1.15625 0.484375 1.765625 1.4375q0.625 0.9375 0.671875 2.140625l-1.71875 0.125q-0.140625 -1.28125 -0.953125 -1.9375q-0.796875 -0.671875 -2.359375 -0.671875q-1.625 0 -2.375 0.609375q-0.75 0.59375 -0.75 1.4375q0 0.734375 0.53125 1.203125q0.515625 0.46875 2.703125 0.96875q2.203125 0.5 3.015625 0.875q1.1875 0.546875 1.75 1.390625q0.578125 0.828125 0.578125 1.921875q0 1.09375 -0.625 2.0625q-0.625 0.953125 -1.796875 1.484375q-1.15625 0.53125 -2.609375 0.53125q-1.84375 0 -3.09375 -0.53125q-1.25 -0.546875 -1.96875 -1.625q-0.703125 -1.078125 -0.734375 -2.453125zm12.834198 8.15625l0 -13.640625l1.53125 0l0 1.28125q0.53125 -0.75 1.203125 -1.125q0.6875 -0.375 1.640625 -0.375q1.265625 0 2.234375 0.65625q0.96875 0.640625 1.453125 1.828125q0.5 1.1875 0.5 2.59375q0 1.515625 -0.546875 2.734375q-0.546875 1.203125 -1.578125 1.84375q-1.03125 0.640625 -2.171875 0.640625q-0.84375 0 -1.515625 -0.34375q-0.65625 -0.359375 -1.078125 -0.890625l0 4.796875l-1.671875 0zm1.515625 -8.65625q0 1.90625 0.765625 2.8125q0.78125 0.90625 1.875 0.90625q1.109375 0 1.890625 -0.9375q0.796875 -0.9375 0.796875 -2.921875q0 -1.875 -0.78125 -2.8125q-0.765625 -0.9375 -1.84375 -0.9375q-1.0625 0 -1.890625 1.0q-0.8125 1.0 -0.8125 2.890625zm15.297592 3.65625q-0.9375 0.796875 -1.796875 1.125q-0.859375 0.3125 -1.84375 0.3125q-1.609375 0 -2.484375 -0.78125q-0.875 -0.796875 -0.875 -2.03125q0 -0.734375 0.328125 -1.328125q0.328125 -0.59375 0.859375 -0.953125q0.53125 -0.359375 1.203125 -0.546875q0.5 -0.140625 1.484375 -0.25q2.03125 -0.25 2.984375 -0.578125q0 -0.34375 0 -0.4375q0 -1.015625 -0.46875 -1.4375q-0.640625 -0.5625 -1.90625 -0.5625q-1.171875 0 -1.734375 0.40625q-0.5625 0.40625 -0.828125 1.46875l-1.640625 -0.234375q0.234375 -1.046875 0.734375 -1.6875q0.515625 -0.640625 1.46875 -0.984375q0.96875 -0.359375 2.25 -0.359375q1.265625 0 2.046875 0.296875q0.78125 0.296875 1.15625 0.75q0.375 0.453125 0.515625 1.140625q0.09375 0.421875 0.09375 1.53125l0 2.234375q0 2.328125 0.09375 2.953125q0.109375 0.609375 0.4375 1.171875l-1.75 0q-0.265625 -0.515625 -0.328125 -1.21875zm-0.140625 -3.71875q-0.90625 0.359375 -2.734375 0.625q-1.03125 0.140625 -1.453125 0.328125q-0.421875 0.1875 -0.65625 0.546875q-0.234375 0.359375 -0.234375 0.796875q0 0.671875 0.5 1.125q0.515625 0.4375 1.484375 0.4375q0.96875 0 1.71875 -0.421875q0.75 -0.4375 1.109375 -1.15625q0.265625 -0.578125 0.265625 -1.671875l0 -0.609375zm4.063217 4.9375l0 -9.859375l1.5 0l0 1.5q0.578125 -1.046875 1.0625 -1.375q0.484375 -0.34375 1.078125 -0.34375q0.84375 0 1.71875 0.546875l-0.578125 1.546875q-0.609375 -0.359375 -1.234375 -0.359375q-0.546875 0 -0.984375 0.328125q-0.421875 0.328125 -0.609375 0.90625q-0.28125 0.890625 -0.28125 1.953125l0 5.15625l-1.671875 0zm5.556427 -2.9375l1.65625 -0.265625q0.140625 1.0 0.765625 1.53125q0.640625 0.515625 1.78125 0.515625q1.15625 0 1.703125 -0.46875q0.5625 -0.46875 0.5625 -1.09375q0 -0.5625 -0.484375 -0.890625q-0.34375 -0.21875 -1.703125 -0.5625q-1.84375 -0.46875 -2.5625 -0.796875q-0.703125 -0.34375 -1.078125 -0.9375q-0.359375 -0.609375 -0.359375 -1.328125q0 -0.65625 0.296875 -1.21875q0.3125 -0.5625 0.828125 -0.9375q0.390625 -0.28125 1.0625 -0.484375q0.671875 -0.203125 1.4375 -0.203125q1.171875 0 2.046875 0.34375q0.875 0.328125 1.28125 0.90625q0.421875 0.5625 0.578125 1.515625l-1.625 0.21875q-0.109375 -0.75 -0.65625 -1.171875q-0.53125 -0.4375 -1.5 -0.4375q-1.15625 0 -1.640625 0.390625q-0.484375 0.375 -0.484375 0.875q0 0.328125 0.203125 0.59375q0.203125 0.265625 0.640625 0.4375q0.25 0.09375 1.46875 0.4375q1.765625 0.46875 2.46875 0.765625q0.703125 0.296875 1.09375 0.875q0.40625 0.578125 0.40625 1.4375q0 0.828125 -0.484375 1.578125q-0.484375 0.734375 -1.40625 1.140625q-0.921875 0.390625 -2.078125 0.390625q-1.921875 0 -2.9375 -0.796875q-1.0 -0.796875 -1.28125 -2.359375zm16.75 -0.234375l1.71875 0.21875q-0.40625 1.5 -1.515625 2.34375q-1.09375 0.828125 -2.8125 0.828125q-2.15625 0 -3.421875 -1.328125q-1.265625 -1.328125 -1.265625 -3.734375q0 -2.484375 1.265625 -3.859375q1.28125 -1.375 3.328125 -1.375q1.984375 0 3.234375 1.34375q1.25 1.34375 1.25 3.796875q0 0.140625 -0.015625 0.4375l-7.34375 0q0.09375 1.625 0.921875 2.484375q0.828125 0.859375 2.0625 0.859375q0.90625 0 1.546875 -0.46875q0.65625 -0.484375 1.046875 -1.546875zm-5.484375 -2.703125l5.5 0q-0.109375 -1.234375 -0.625 -1.859375q-0.796875 -0.96875 -2.078125 -0.96875q-1.140625 0 -1.9375 0.78125q-0.78125 0.765625 -0.859375 2.046875zm20.730896 4.65625q-0.9375 0.796875 -1.796875 1.125q-0.859375 0.3125 -1.84375 0.3125q-1.609375 0 -2.484375 -0.78125q-0.875 -0.796875 -0.875 -2.03125q0 -0.734375 0.328125 -1.328125q0.328125 -0.59375 0.859375 -0.953125q0.53125 -0.359375 1.203125 -0.546875q0.5 -0.140625 1.484375 -0.25q2.03125 -0.25 2.984375 -0.578125q0 -0.34375 0 -0.4375q0 -1.015625 -0.46875 -1.4375q-0.640625 -0.5625 -1.90625 -0.5625q-1.171875 0 -1.734375 0.40625q-0.5625 0.40625 -0.828125 1.46875l-1.640625 -0.234375q0.234375 -1.046875 0.734375 -1.6875q0.515625 -0.640625 1.46875 -0.984375q0.96875 -0.359375 2.25 -0.359375q1.265625 0 2.046875 0.296875q0.78125 0.296875 1.15625 0.75q0.375 0.453125 0.515625 1.140625q0.09375 0.421875 0.09375 1.53125l0 2.234375q0 2.328125 0.09375 2.953125q0.109375 0.609375 0.4375 1.171875l-1.75 0q-0.265625 -0.515625 -0.328125 -1.21875zm-0.140625 -3.71875q-0.90625 0.359375 -2.734375 0.625q-1.03125 0.140625 -1.453125 0.328125q-0.421875 0.1875 -0.65625 0.546875q-0.234375 0.359375 -0.234375 0.796875q0 0.671875 0.5 1.125q0.515625 0.4375 1.484375 0.4375q0.96875 0 1.71875 -0.421875q0.75 -0.4375 1.109375 -1.15625q0.265625 -0.578125 0.265625 -1.671875l0 -0.609375zm4.047592 4.9375l0 -13.59375l1.671875 0l0 13.59375l-1.671875 0zm4.144821 0l0 -13.59375l1.671875 0l0 13.59375l-1.671875 0zm3.5510712 -4.921875q0 -2.734375 1.53125 -4.0625q1.265625 -1.09375 3.09375 -1.09375q2.03125 0 3.3125 1.34375q1.296875 1.328125 1.296875 3.671875q0 1.90625 -0.578125 3.0q-0.5625 1.078125 -1.65625 1.6875q-1.078125 0.59375 -2.375 0.59375q-2.0625 0 -3.34375 -1.328125q-1.28125 -1.328125 -1.28125 -3.8125zm1.71875 0q0 1.890625 0.828125 2.828125q0.828125 0.9375 2.078125 0.9375q1.25 0 2.0625 -0.9375q0.828125 -0.953125 0.828125 -2.890625q0 -1.828125 -0.828125 -2.765625q-0.828125 -0.9375 -2.0625 -0.9375q-1.25 0 -2.078125 0.9375q-0.828125 0.9375 -0.828125 2.828125zm15.719467 1.3125l1.640625 0.21875q-0.265625 1.6875 -1.375 2.65625q-1.109375 0.953125 -2.734375 0.953125q-2.015625 0 -3.25 -1.3125q-1.21875 -1.328125 -1.21875 -3.796875q0 -1.59375 0.515625 -2.78125q0.53125 -1.203125 1.609375 -1.796875q1.09375 -0.609375 2.359375 -0.609375q1.609375 0 2.625 0.8125q1.015625 0.8125 1.3125 2.3125l-1.625 0.25q-0.234375 -1.0 -0.828125 -1.5q-0.59375 -0.5 -1.421875 -0.5q-1.265625 0 -2.0625 0.90625q-0.78125 0.90625 -0.78125 2.859375q0 1.984375 0.765625 2.890625q0.765625 0.890625 1.984375 0.890625q0.984375 0 1.640625 -0.59375q0.65625 -0.609375 0.84375 -1.859375zm9.328125 2.390625q-0.9375 0.796875 -1.796875 1.125q-0.859375 0.3125 -1.84375 0.3125q-1.609375 0 -2.484375 -0.78125q-0.875 -0.796875 -0.875 -2.03125q0 -0.734375 0.328125 -1.328125q0.328125 -0.59375 0.859375 -0.953125q0.53125 -0.359375 1.203125 -0.546875q0.5 -0.140625 1.484375 -0.25q2.03125 -0.25 2.984375 -0.578125q0 -0.34375 0 -0.4375q0 -1.015625 -0.46875 -1.4375q-0.640625 -0.5625 -1.90625 -0.5625q-1.171875 0 -1.734375 0.40625q-0.5625 0.40625 -0.828125 1.46875l-1.640625 -0.234375q0.234375 -1.046875 0.734375 -1.6875q0.515625 -0.640625 1.46875 -0.984375q0.96875 -0.359375 2.25 -0.359375q1.265625 0 2.046875 0.296875q0.78125 0.296875 1.15625 0.75q0.375 0.453125 0.515625 1.140625q0.09375 0.421875 0.09375 1.53125l0 2.234375q0 2.328125 0.09375 2.953125q0.109375 0.609375 0.4375 1.171875l-1.75 0q-0.265625 -0.515625 -0.328125 -1.21875zm-0.140625 -3.71875q-0.90625 0.359375 -2.734375 0.625q-1.03125 0.140625 -1.453125 0.328125q-0.421875 0.1875 -0.65625 0.546875q-0.234375 0.359375 -0.234375 0.796875q0 0.671875 0.5 1.125q0.515625 0.4375 1.484375 0.4375q0.96875 0 1.71875 -0.421875q0.75 -0.4375 1.109375 -1.15625q0.265625 -0.578125 0.265625 -1.671875l0 -0.609375zm7.735092 3.4375l0.234375 1.484375q-0.703125 0.140625 -1.265625 0.140625q-0.90625 0 -1.40625 -0.28125q-0.5 -0.296875 -0.703125 -0.75q-0.203125 -0.46875 -0.203125 -1.984375l0 -5.65625l-1.234375 0l0 -1.3125l1.234375 0l0 -2.4375l1.65625 -1.0l0 3.4375l1.6875 0l0 1.3125l-1.6875 0l0 5.75q0 0.71875 0.078125 0.921875q0.09375 0.203125 0.296875 0.328125q0.203125 0.125 0.578125 0.125q0.265625 0 0.734375 -0.078125zm1.5426788 -10.1875l0 -1.90625l1.671875 0l0 1.90625l-1.671875 0zm0 11.6875l0 -9.859375l1.671875 0l0 9.859375l-1.671875 0zm3.5041962 -4.921875q0 -2.734375 1.53125 -4.0625q1.265625 -1.09375 3.09375 -1.09375q2.03125 0 3.3125 1.34375q1.296875 1.328125 1.296875 3.671875q0 1.90625 -0.578125 3.0q-0.5625 1.078125 -1.65625 1.6875q-1.078125 0.59375 -2.375 0.59375q-2.0625 0 -3.34375 -1.328125q-1.28125 -1.328125 -1.28125 -3.8125zm1.71875 0q0 1.890625 0.828125 2.828125q0.828125 0.9375 2.078125 0.9375q1.25 0 2.0625 -0.9375q0.828125 -0.953125 0.828125 -2.890625q0 -1.828125 -0.828125 -2.765625q-0.828125 -0.9375 -2.0625 -0.9375q-1.25 0 -2.078125 0.9375q-0.828125 0.9375 -0.828125 2.828125zm9.281967 4.921875l0 -9.859375l1.5 0l0 1.40625q1.09375 -1.625 3.140625 -1.625q0.890625 0 1.640625 0.328125q0.75 0.3125 1.109375 0.84375q0.375 0.515625 0.53125 1.21875q0.09375 0.46875 0.09375 1.625l0 6.0625l-1.671875 0l0 -6.0q0 -1.015625 -0.203125 -1.515625q-0.1875 -0.515625 -0.6875 -0.8125q-0.5 -0.296875 -1.171875 -0.296875q-1.0625 0 -1.84375 0.671875q-0.765625 0.671875 -0.765625 2.578125l0 5.375l-1.671875 0z" fill-rule="nonzero"></path><path fill="#000000" d="m50.992783 97.035484l0 -13.59375l1.671875 0l0 4.875q1.171875 -1.359375 2.953125 -1.359375q1.09375 0 1.890625 0.4375q0.8125 0.421875 1.15625 1.1875q0.359375 0.765625 0.359375 2.203125l0 6.25l-1.671875 0l0 -6.25q0 -1.25 -0.546875 -1.8125q-0.546875 -0.578125 -1.53125 -0.578125q-0.75 0 -1.40625 0.390625q-0.640625 0.375 -0.921875 1.046875q-0.28125 0.65625 -0.28125 1.8125l0 5.390625l-1.671875 0zm16.813217 -1.21875q-0.9375 0.796875 -1.796875 1.125q-0.859375 0.3125 -1.84375 0.3125q-1.609375 0 -2.484375 -0.78125q-0.875 -0.796875 -0.875 -2.03125q0 -0.734375 0.328125 -1.328125q0.328125 -0.59375 0.859375 -0.953125q0.53125 -0.359375 1.203125 -0.546875q0.5 -0.140625 1.484375 -0.25q2.03125 -0.25 2.984375 -0.578125q0 -0.34375 0 -0.4375q0 -1.015625 -0.46875 -1.4375q-0.640625 -0.5625 -1.90625 -0.5625q-1.171875 0 -1.734375 0.40625q-0.5625 0.40625 -0.828125 1.46875l-1.640625 -0.234375q0.234375 -1.046875 0.734375 -1.6875q0.515625 -0.640625 1.46875 -0.984375q0.96875 -0.359375 2.25 -0.359375q1.265625 0 2.046875 0.296875q0.78125 0.296875 1.15625 0.75q0.375 0.453125 0.515625 1.140625q0.09375 0.421875 0.09375 1.53125l0 2.234375q0 2.328125 0.09375 2.953125q0.109375 0.609375 0.4375 1.171875l-1.75 0q-0.265625 -0.515625 -0.328125 -1.21875zm-0.140625 -3.71875q-0.90625 0.359375 -2.734375 0.625q-1.03125 0.140625 -1.453125 0.328125q-0.421875 0.1875 -0.65625 0.546875q-0.234375 0.359375 -0.234375 0.796875q0 0.671875 0.5 1.125q0.515625 0.4375 1.484375 0.4375q0.96875 0 1.71875 -0.421875q0.75 -0.4375 1.109375 -1.15625q0.265625 -0.578125 0.265625 -1.671875l0 -0.609375zm3.4069672 2.0l1.65625 -0.265625q0.140625 1.0 0.765625 1.53125q0.640625 0.515625 1.78125 0.515625q1.15625 0 1.703125 -0.46875q0.5625 -0.46875 0.5625 -1.09375q0 -0.5625 -0.484375 -0.890625q-0.34375 -0.21875 -1.703125 -0.5625q-1.84375 -0.46875 -2.5625 -0.796875q-0.703125 -0.34375 -1.078125 -0.9375q-0.359375 -0.609375 -0.359375 -1.328125q0 -0.65625 0.296875 -1.21875q0.3125 -0.5625 0.828125 -0.9375q0.390625 -0.28125 1.0625 -0.484375q0.671875 -0.203125 1.4375 -0.203125q1.171875 0 2.046875 0.34375q0.875 0.328125 1.28125 0.90625q0.421875 0.5625 0.578125 1.515625l-1.625 0.21875q-0.109375 -0.75 -0.65625 -1.171875q-0.53125 -0.4375 -1.5 -0.4375q-1.15625 0 -1.640625 0.390625q-0.484375 0.375 -0.484375 0.875q0 0.328125 0.203125 0.59375q0.203125 0.265625 0.640625 0.4375q0.25 0.09375 1.46875 0.4375q1.765625 0.46875 2.46875 0.765625q0.703125 0.296875 1.09375 0.875q0.40625 0.578125 0.40625 1.4375q0 0.828125 -0.484375 1.578125q-0.484375 0.734375 -1.40625 1.140625q-0.921875 0.390625 -2.078125 0.390625q-1.921875 0 -2.9375 -0.796875q-1.0 -0.796875 -1.28125 -2.359375zm10.0 2.9375l0 -13.59375l1.671875 0l0 4.875q1.171875 -1.359375 2.953125 -1.359375q1.09375 0 1.890625 0.4375q0.8125 0.421875 1.15625 1.1875q0.359375 0.765625 0.359375 2.203125l0 6.25l-1.671875 0l0 -6.25q0 -1.25 -0.546875 -1.8125q-0.546875 -0.578125 -1.53125 -0.578125q-0.75 0 -1.40625 0.390625q-0.640625 0.375 -0.921875 1.046875q-0.28125 0.65625 -0.28125 1.8125l0 5.390625l-1.671875 0zm19.215271 -1.5l0.234375 1.484375q-0.703125 0.140625 -1.265625 0.140625q-0.90625 0 -1.40625 -0.28125q-0.5 -0.296875 -0.703125 -0.75q-0.203125 -0.46875 -0.203125 -1.984375l0 -5.65625l-1.234375 0l0 -1.3125l1.234375 0l0 -2.4375l1.65625 -1.0l0 3.4375l1.6875 0l0 1.3125l-1.6875 0l0 5.75q0 0.71875 0.078125 0.921875q0.09375 0.203125 0.296875 0.328125q0.203125 0.125 0.578125 0.125q0.265625 0 0.734375 -0.078125zm7.964554 0.28125q-0.9375 0.796875 -1.796875 1.125q-0.859375 0.3125 -1.84375 0.3125q-1.609375 0 -2.484375 -0.78125q-0.875 -0.796875 -0.875 -2.03125q0 -0.734375 0.328125 -1.328125q0.328125 -0.59375 0.859375 -0.953125q0.53125 -0.359375 1.203125 -0.546875q0.5 -0.140625 1.484375 -0.25q2.03125 -0.25 2.984375 -0.578125q0 -0.34375 0 -0.4375q0 -1.015625 -0.46875 -1.4375q-0.640625 -0.5625 -1.90625 -0.5625q-1.171875 0 -1.734375 0.40625q-0.5625 0.40625 -0.828125 1.46875l-1.640625 -0.234375q0.234375 -1.046875 0.734375 -1.6875q0.515625 -0.640625 1.46875 -0.984375q0.96875 -0.359375 2.25 -0.359375q1.265625 0 2.046875 0.296875q0.78125 0.296875 1.15625 0.75q0.375 0.453125 0.515625 1.140625q0.09375 0.421875 0.09375 1.53125l0 2.234375q0 2.328125 0.09375 2.953125q0.109375 0.609375 0.4375 1.171875l-1.75 0q-0.265625 -0.515625 -0.328125 -1.21875zm-0.140625 -3.71875q-0.90625 0.359375 -2.734375 0.625q-1.03125 0.140625 -1.453125 0.328125q-0.421875 0.1875 -0.65625 0.546875q-0.234375 0.359375 -0.234375 0.796875q0 0.671875 0.5 1.125q0.515625 0.4375 1.484375 0.4375q0.96875 0 1.71875 -0.421875q0.75 -0.4375 1.109375 -1.15625q0.265625 -0.578125 0.265625 -1.671875l0 -0.609375zm5.625717 4.9375l-1.546875 0l0 -13.59375l1.65625 0l0 4.84375q1.0625 -1.328125 2.703125 -1.328125q0.90625 0 1.71875 0.375q0.8125 0.359375 1.328125 1.03125q0.53125 0.65625 0.828125 1.59375q0.296875 0.9375 0.296875 2.0q0 2.53125 -1.25 3.921875q-1.25 1.375 -3.0 1.375q-1.75 0 -2.734375 -1.453125l0 1.234375zm-0.015625 -5.0q0 1.765625 0.46875 2.5625q0.796875 1.28125 2.140625 1.28125q1.09375 0 1.890625 -0.9375q0.796875 -0.953125 0.796875 -2.84375q0 -1.921875 -0.765625 -2.84375q-0.765625 -0.921875 -1.84375 -0.921875q-1.09375 0 -1.890625 0.953125q-0.796875 0.953125 -0.796875 2.75zm8.813217 5.0l0 -13.59375l1.671875 0l0 13.59375l-1.671875 0zm10.926071 -3.171875l1.71875 0.21875q-0.40625 1.5 -1.515625 2.34375q-1.09375 0.828125 -2.8125 0.828125q-2.15625 0 -3.421875 -1.328125q-1.265625 -1.328125 -1.265625 -3.734375q0 -2.484375 1.265625 -3.859375q1.28125 -1.375 3.328125 -1.375q1.984375 0 3.234375 1.34375q1.25 1.34375 1.25 3.796875q0 0.140625 -0.015625 0.4375l-7.34375 0q0.09375 1.625 0.921875 2.484375q0.828125 0.859375 2.0625 0.859375q0.90625 0 1.546875 -0.46875q0.65625 -0.484375 1.046875 -1.546875zm-5.484375 -2.703125l5.5 0q-0.109375 -1.234375 -0.625 -1.859375q-0.796875 -0.96875 -2.078125 -0.96875q-1.140625 0 -1.9375 0.78125q-0.78125 0.765625 -0.859375 2.046875z" fill-rule="nonzero"></path><path fill="#cfe2f3" d="m47.00895 116.0l125.007866 0l0 46.992126l-125.007866 0z" fill-rule="nonzero"></path><path stroke="#000000" stroke-width="1.0" stroke-linejoin="round" stroke-linecap="butt" d="m47.00895 116.0l125.007866 0l0 46.992126l-125.007866 0z" fill-rule="nonzero"></path><path fill="#000000" d="m57.399574 146.41606l0 -13.59375l5.109375 0q1.546875 0 2.484375 0.40625q0.953125 0.40625 1.484375 1.265625q0.53125 0.859375 0.53125 1.796875q0 0.875 -0.46875 1.65625q-0.46875 0.765625 -1.4375 1.234375q1.234375 0.359375 1.890625 1.234375q0.671875 0.875 0.671875 2.0625q0 0.953125 -0.40625 1.78125q-0.390625 0.8125 -0.984375 1.265625q-0.59375 0.4375 -1.5 0.671875q-0.890625 0.21875 -2.1875 0.21875l-5.1875 0zm1.796875 -7.890625l2.9375 0q1.203125 0 1.71875 -0.15625q0.6875 -0.203125 1.03125 -0.671875q0.359375 -0.46875 0.359375 -1.1875q0 -0.671875 -0.328125 -1.1875q-0.328125 -0.515625 -0.9375 -0.703125q-0.59375 -0.203125 -2.0625 -0.203125l-2.71875 0l0 4.109375zm0 6.28125l3.390625 0q0.875 0 1.21875 -0.0625q0.625 -0.109375 1.046875 -0.359375q0.421875 -0.265625 0.6875 -0.765625q0.265625 -0.5 0.265625 -1.140625q0 -0.765625 -0.390625 -1.328125q-0.390625 -0.5625 -1.078125 -0.78125q-0.6875 -0.234375 -1.984375 -0.234375l-3.15625 0l0 4.671875zm16.959198 1.609375l0 -1.453125q-1.140625 1.671875 -3.125 1.671875q-0.859375 0 -1.625 -0.328125q-0.75 -0.34375 -1.125 -0.84375q-0.359375 -0.5 -0.515625 -1.234375q-0.09375 -0.5 -0.09375 -1.5625l0 -6.109375l1.671875 0l0 5.46875q0 1.3125 0.09375 1.765625q0.15625 0.65625 0.671875 1.03125q0.515625 0.375 1.265625 0.375q0.75 0 1.40625 -0.375q0.65625 -0.390625 0.921875 -1.046875q0.28125 -0.671875 0.28125 -1.9375l0 -5.28125l1.671875 0l0 9.859375l-1.5 0zm10.360092 -3.609375l1.640625 0.21875q-0.265625 1.6875 -1.375 2.65625q-1.109375 0.953125 -2.734375 0.953125q-2.015625 0 -3.25 -1.3125q-1.21875 -1.328125 -1.21875 -3.796875q0 -1.59375 0.515625 -2.78125q0.53125 -1.203125 1.609375 -1.796875q1.09375 -0.609375 2.359375 -0.609375q1.609375 0 2.625 0.8125q1.015625 0.8125 1.3125 2.3125l-1.625 0.25q-0.234375 -1.0 -0.828125 -1.5q-0.59375 -0.5 -1.421875 -0.5q-1.265625 0 -2.0625 0.90625q-0.78125 0.90625 -0.78125 2.859375q0 1.984375 0.765625 2.890625q0.765625 0.890625 1.984375 0.890625q0.984375 0 1.640625 -0.59375q0.65625 -0.609375 0.84375 -1.859375zm2.90625 3.609375l0 -13.59375l1.671875 0l0 7.75l3.953125 -4.015625l2.15625 0l-3.765625 3.65625l4.140625 6.203125l-2.0625 0l-3.25 -5.03125l-1.171875 1.125l0 3.90625l-1.671875 0zm16.0625 -3.171875l1.71875 0.21875q-0.40625 1.5 -1.515625 2.34375q-1.09375 0.828125 -2.8125 0.828125q-2.15625 0 -3.421875 -1.328125q-1.265625 -1.328125 -1.265625 -3.734375q0 -2.484375 1.265625 -3.859375q1.28125 -1.375 3.328125 -1.375q1.984375 0 3.234375 1.34375q1.25 1.34375 1.25 3.796875q0 0.140625 -0.015625 0.4375l-7.34375 0q0.09375 1.625 0.921875 2.484375q0.828125 0.859375 2.0625 0.859375q0.90625 0 1.546875 -0.46875q0.65625 -0.484375 1.046875 -1.546875zm-5.484375 -2.703125l5.5 0q-0.109375 -1.234375 -0.625 -1.859375q-0.796875 -0.96875 -2.078125 -0.96875q-1.140625 0 -1.9375 0.78125q-0.78125 0.765625 -0.859375 2.046875zm12.766342 4.375l0.234375 1.484375q-0.703125 0.140625 -1.265625 0.140625q-0.90625 0 -1.40625 -0.28125q-0.5 -0.296875 -0.703125 -0.75q-0.203125 -0.46875 -0.203125 -1.984375l0 -5.65625l-1.234375 0l0 -1.3125l1.234375 0l0 -2.4375l1.65625 -1.0l0 3.4375l1.6875 0l0 1.3125l-1.6875 0l0 5.75q0 0.71875 0.078125 0.921875q0.09375 0.203125 0.296875 0.328125q0.203125 0.125 0.578125 0.125q0.265625 0 0.734375 -0.078125zm12.538483 1.5l-1.671875 0l0 -10.640625q-0.59375 0.578125 -1.578125 1.15625q-0.984375 0.5625 -1.765625 0.859375l0 -1.625q1.40625 -0.65625 2.453125 -1.59375q1.046875 -0.9375 1.484375 -1.8125l1.078125 0l0 13.65625z" fill-rule="nonzero"></path><path fill="#cfe2f3" d="m47.00895 163.0l125.007866 0l0 46.992126l-125.007866 0z" fill-rule="nonzero"></path><path stroke="#000000" stroke-width="1.0" stroke-linejoin="round" stroke-linecap="butt" d="m47.00895 163.0l125.007866 0l0 46.992126l-125.007866 0z" fill-rule="nonzero"></path><path fill="#000000" d="m57.399574 193.41606l0 -13.59375l5.109375 0q1.546875 0 2.484375 0.40625q0.953125 0.40625 1.484375 1.265625q0.53125 0.859375 0.53125 1.796875q0 0.875 -0.46875 1.65625q-0.46875 0.765625 -1.4375 1.234375q1.234375 0.359375 1.890625 1.234375q0.671875 0.875 0.671875 2.0625q0 0.953125 -0.40625 1.78125q-0.390625 0.8125 -0.984375 1.265625q-0.59375 0.4375 -1.5 0.671875q-0.890625 0.21875 -2.1875 0.21875l-5.1875 0zm1.796875 -7.890625l2.9375 0q1.203125 0 1.71875 -0.15625q0.6875 -0.203125 1.03125 -0.671875q0.359375 -0.46875 0.359375 -1.1875q0 -0.671875 -0.328125 -1.1875q-0.328125 -0.515625 -0.9375 -0.703125q-0.59375 -0.203125 -2.0625 -0.203125l-2.71875 0l0 4.109375zm0 6.28125l3.390625 0q0.875 0 1.21875 -0.0625q0.625 -0.109375 1.046875 -0.359375q0.421875 -0.265625 0.6875 -0.765625q0.265625 -0.5 0.265625 -1.140625q0 -0.765625 -0.390625 -1.328125q-0.390625 -0.5625 -1.078125 -0.78125q-0.6875 -0.234375 -1.984375 -0.234375l-3.15625 0l0 4.671875zm16.959198 1.609375l0 -1.453125q-1.140625 1.671875 -3.125 1.671875q-0.859375 0 -1.625 -0.328125q-0.75 -0.34375 -1.125 -0.84375q-0.359375 -0.5 -0.515625 -1.234375q-0.09375 -0.5 -0.09375 -1.5625l0 -6.109375l1.671875 0l0 5.46875q0 1.3125 0.09375 1.765625q0.15625 0.65625 0.671875 1.03125q0.515625 0.375 1.265625 0.375q0.75 0 1.40625 -0.375q0.65625 -0.390625 0.921875 -1.046875q0.28125 -0.671875 0.28125 -1.9375l0 -5.28125l1.671875 0l0 9.859375l-1.5 0zm10.360092 -3.609375l1.640625 0.21875q-0.265625 1.6875 -1.375 2.65625q-1.109375 0.953125 -2.734375 0.953125q-2.015625 0 -3.25 -1.3125q-1.21875 -1.328125 -1.21875 -3.796875q0 -1.59375 0.515625 -2.78125q0.53125 -1.203125 1.609375 -1.796875q1.09375 -0.609375 2.359375 -0.609375q1.609375 0 2.625 0.8125q1.015625 0.8125 1.3125 2.3125l-1.625 0.25q-0.234375 -1.0 -0.828125 -1.5q-0.59375 -0.5 -1.421875 -0.5q-1.265625 0 -2.0625 0.90625q-0.78125 0.90625 -0.78125 2.859375q0 1.984375 0.765625 2.890625q0.765625 0.890625 1.984375 0.890625q0.984375 0 1.640625 -0.59375q0.65625 -0.609375 0.84375 -1.859375zm2.90625 3.609375l0 -13.59375l1.671875 0l0 7.75l3.953125 -4.015625l2.15625 0l-3.765625 3.65625l4.140625 6.203125l-2.0625 0l-3.25 -5.03125l-1.171875 1.125l0 3.90625l-1.671875 0zm16.0625 -3.171875l1.71875 0.21875q-0.40625 1.5 -1.515625 2.34375q-1.09375 0.828125 -2.8125 0.828125q-2.15625 0 -3.421875 -1.328125q-1.265625 -1.328125 -1.265625 -3.734375q0 -2.484375 1.265625 -3.859375q1.28125 -1.375 3.328125 -1.375q1.984375 0 3.234375 1.34375q1.25 1.34375 1.25 3.796875q0 0.140625 -0.015625 0.4375l-7.34375 0q0.09375 1.625 0.921875 2.484375q0.828125 0.859375 2.0625 0.859375q0.90625 0 1.546875 -0.46875q0.65625 -0.484375 1.046875 -1.546875zm-5.484375 -2.703125l5.5 0q-0.109375 -1.234375 -0.625 -1.859375q-0.796875 -0.96875 -2.078125 -0.96875q-1.140625 0 -1.9375 0.78125q-0.78125 0.765625 -0.859375 2.046875zm12.766342 4.375l0.234375 1.484375q-0.703125 0.140625 -1.265625 0.140625q-0.90625 0 -1.40625 -0.28125q-0.5 -0.296875 -0.703125 -0.75q-0.203125 -0.46875 -0.203125 -1.984375l0 -5.65625l-1.234375 0l0 -1.3125l1.234375 0l0 -2.4375l1.65625 -1.0l0 3.4375l1.6875 0l0 1.3125l-1.6875 0l0 5.75q0 0.71875 0.078125 0.921875q0.09375 0.203125 0.296875 0.328125q0.203125 0.125 0.578125 0.125q0.265625 0 0.734375 -0.078125zm15.022858 -0.109375l0 1.609375l-8.984375 0q-0.015625 -0.609375 0.1875 -1.15625q0.34375 -0.921875 1.09375 -1.8125q0.765625 -0.890625 2.1875 -2.0625q2.21875 -1.8125 3.0 -2.875q0.78125 -1.0625 0.78125 -2.015625q0 -0.984375 -0.71875 -1.671875q-0.703125 -0.6875 -1.84375 -0.6875q-1.203125 0 -1.9375 0.734375q-0.71875 0.71875 -0.71875 2.0l-1.71875 -0.171875q0.171875 -1.921875 1.328125 -2.921875q1.15625 -1.015625 3.09375 -1.015625q1.953125 0 3.09375 1.09375q1.140625 1.078125 1.140625 2.6875q0 0.8125 -0.34375 1.609375q-0.328125 0.78125 -1.109375 1.65625q-0.765625 0.859375 -2.5625 2.390625q-1.5 1.265625 -1.9375 1.71875q-0.421875 0.4375 -0.703125 0.890625l6.671875 0z" fill-rule="nonzero"></path><path fill="#cfe2f3" d="m47.00895 209.99213l125.007866 0l0 46.992126l-125.007866 0z" fill-rule="nonzero"></path><path stroke="#000000" stroke-width="1.0" stroke-linejoin="round" stroke-linecap="butt" d="m47.00895 209.99213l125.007866 0l0 46.992126l-125.007866 0z" fill-rule="nonzero"></path><path fill="#000000" d="m57.399574 240.40819l0 -13.59375l5.109375 0q1.546875 0 2.484375 0.40625q0.953125 0.40625 1.484375 1.265625q0.53125 0.859375 0.53125 1.796875q0 0.875 -0.46875 1.65625q-0.46875 0.765625 -1.4375 1.234375q1.234375 0.359375 1.890625 1.234375q0.671875 0.875 0.671875 2.0625q0 0.953125 -0.40625 1.78125q-0.390625 0.8125 -0.984375 1.265625q-0.59375 0.4375 -1.5 0.671875q-0.890625 0.21875 -2.1875 0.21875l-5.1875 0zm1.796875 -7.890625l2.9375 0q1.203125 0 1.71875 -0.15625q0.6875 -0.203125 1.03125 -0.671875q0.359375 -0.46875 0.359375 -1.1875q0 -0.671875 -0.328125 -1.1875q-0.328125 -0.515625 -0.9375 -0.703125q-0.59375 -0.203125 -2.0625 -0.203125l-2.71875 0l0 4.109375zm0 6.28125l3.390625 0q0.875 0 1.21875 -0.0625q0.625 -0.109375 1.046875 -0.359375q0.421875 -0.265625 0.6875 -0.765625q0.265625 -0.5 0.265625 -1.140625q0 -0.765625 -0.390625 -1.328125q-0.390625 -0.5625 -1.078125 -0.78125q-0.6875 -0.234375 -1.984375 -0.234375l-3.15625 0l0 4.671875zm16.959198 1.609375l0 -1.453125q-1.140625 1.671875 -3.125 1.671875q-0.859375 0 -1.625 -0.328125q-0.75 -0.34375 -1.125 -0.84375q-0.359375 -0.5 -0.515625 -1.234375q-0.09375 -0.5 -0.09375 -1.5625l0 -6.109375l1.671875 0l0 5.46875q0 1.3125 0.09375 1.765625q0.15625 0.65625 0.671875 1.03125q0.515625 0.375 1.265625 0.375q0.75 0 1.40625 -0.375q0.65625 -0.390625 0.921875 -1.046875q0.28125 -0.671875 0.28125 -1.9375l0 -5.28125l1.671875 0l0 9.859375l-1.5 0zm10.360092 -3.609375l1.640625 0.21875q-0.265625 1.6875 -1.375 2.65625q-1.109375 0.953125 -2.734375 0.953125q-2.015625 0 -3.25 -1.3125q-1.21875 -1.328125 -1.21875 -3.796875q0 -1.59375 0.515625 -2.78125q0.53125 -1.203125 1.609375 -1.796875q1.09375 -0.609375 2.359375 -0.609375q1.609375 0 2.625 0.8125q1.015625 0.8125 1.3125 2.3125l-1.625 0.25q-0.234375 -1.0 -0.828125 -1.5q-0.59375 -0.5 -1.421875 -0.5q-1.265625 0 -2.0625 0.90625q-0.78125 0.90625 -0.78125 2.859375q0 1.984375 0.765625 2.890625q0.765625 0.890625 1.984375 0.890625q0.984375 0 1.640625 -0.59375q0.65625 -0.609375 0.84375 -1.859375zm2.90625 3.609375l0 -13.59375l1.671875 0l0 7.75l3.953125 -4.015625l2.15625 0l-3.765625 3.65625l4.140625 6.203125l-2.0625 0l-3.25 -5.03125l-1.171875 1.125l0 3.90625l-1.671875 0zm16.0625 -3.171875l1.71875 0.21875q-0.40625 1.5 -1.515625 2.34375q-1.09375 0.828125 -2.8125 0.828125q-2.15625 0 -3.421875 -1.328125q-1.265625 -1.328125 -1.265625 -3.734375q0 -2.484375 1.265625 -3.859375q1.28125 -1.375 3.328125 -1.375q1.984375 0 3.234375 1.34375q1.25 1.34375 1.25 3.796875q0 0.140625 -0.015625 0.4375l-7.34375 0q0.09375 1.625 0.921875 2.484375q0.828125 0.859375 2.0625 0.859375q0.90625 0 1.546875 -0.46875q0.65625 -0.484375 1.046875 -1.546875zm-5.484375 -2.703125l5.5 0q-0.109375 -1.234375 -0.625 -1.859375q-0.796875 -0.96875 -2.078125 -0.96875q-1.140625 0 -1.9375 0.78125q-0.78125 0.765625 -0.859375 2.046875zm12.766342 4.375l0.234375 1.484375q-0.703125 0.140625 -1.265625 0.140625q-0.90625 0 -1.40625 -0.28125q-0.5 -0.296875 -0.703125 -0.75q-0.203125 -0.46875 -0.203125 -1.984375l0 -5.65625l-1.234375 0l0 -1.3125l1.234375 0l0 -2.4375l1.65625 -1.0l0 3.4375l1.6875 0l0 1.3125l-1.6875 0l0 5.75q0 0.71875 0.078125 0.921875q0.09375 0.203125 0.296875 0.328125q0.203125 0.125 0.578125 0.125q0.265625 0 0.734375 -0.078125zm6.2572327 -2.09375l1.671875 -0.21875q0.28125 1.421875 0.96875 2.046875q0.703125 0.625 1.6875 0.625q1.1875 0 2.0 -0.8125q0.8125 -0.828125 0.8125 -2.03125q0 -1.140625 -0.765625 -1.890625q-0.75 -0.75 -1.90625 -0.75q-0.46875 0 -1.171875 0.1875l0.1875 -1.46875q0.15625 0.015625 0.265625 0.015625q1.0625 0 1.90625 -0.546875q0.859375 -0.5625 0.859375 -1.71875q0 -0.921875 -0.625 -1.515625q-0.609375 -0.609375 -1.59375 -0.609375q-0.96875 0 -1.625 0.609375q-0.640625 0.609375 -0.828125 1.84375l-1.671875 -0.296875q0.296875 -1.6875 1.375 -2.609375q1.09375 -0.921875 2.71875 -0.921875q1.109375 0 2.046875 0.484375q0.9375 0.46875 1.421875 1.296875q0.5 0.828125 0.5 1.75q0 0.890625 -0.46875 1.609375q-0.46875 0.71875 -1.40625 1.15625q1.21875 0.265625 1.875 1.15625q0.671875 0.875 0.671875 2.1875q0 1.78125 -1.296875 3.015625q-1.296875 1.234375 -3.28125 1.234375q-1.796875 0 -2.984375 -1.0625q-1.171875 -1.0625 -1.34375 -2.765625z" fill-rule="nonzero"></path><path fill="#cfe2f3" d="m47.00895 257.0l125.007866 0l0 46.992126l-125.007866 0z" fill-rule="nonzero"></path><path stroke="#000000" stroke-width="1.0" stroke-linejoin="round" stroke-linecap="butt" d="m47.00895 257.0l125.007866 0l0 46.992126l-125.007866 0z" fill-rule="nonzero"></path><path fill="#000000" d="m57.399574 287.41608l0 -13.59375l5.109375 0q1.546875 0 2.484375 0.40625q0.953125 0.40625 1.484375 1.265625q0.53125 0.859375 0.53125 1.796875q0 0.875 -0.46875 1.65625q-0.46875 0.765625 -1.4375 1.234375q1.234375 0.359375 1.890625 1.234375q0.671875 0.875 0.671875 2.0625q0 0.953125 -0.40625 1.78125q-0.390625 0.8125 -0.984375 1.265625q-0.59375 0.4375 -1.5 0.671875q-0.890625 0.21875 -2.1875 0.21875l-5.1875 0zm1.796875 -7.890625l2.9375 0q1.203125 0 1.71875 -0.15625q0.6875 -0.203125 1.03125 -0.671875q0.359375 -0.46875 0.359375 -1.1875q0 -0.671875 -0.328125 -1.1875q-0.328125 -0.515625 -0.9375 -0.703125q-0.59375 -0.203125 -2.0625 -0.203125l-2.71875 0l0 4.109375zm0 6.28125l3.390625 0q0.875 0 1.21875 -0.0625q0.625 -0.109375 1.046875 -0.359375q0.421875 -0.265625 0.6875 -0.765625q0.265625 -0.5 0.265625 -1.140625q0 -0.765625 -0.390625 -1.328125q-0.390625 -0.5625 -1.078125 -0.78125q-0.6875 -0.234375 -1.984375 -0.234375l-3.15625 0l0 4.671875zm16.959198 1.609375l0 -1.453125q-1.140625 1.671875 -3.125 1.671875q-0.859375 0 -1.625 -0.328125q-0.75 -0.34375 -1.125 -0.84375q-0.359375 -0.5 -0.515625 -1.234375q-0.09375 -0.5 -0.09375 -1.5625l0 -6.109375l1.671875 0l0 5.46875q0 1.3125 0.09375 1.765625q0.15625 0.65625 0.671875 1.03125q0.515625 0.375 1.265625 0.375q0.75 0 1.40625 -0.375q0.65625 -0.390625 0.921875 -1.046875q0.28125 -0.671875 0.28125 -1.9375l0 -5.28125l1.671875 0l0 9.859375l-1.5 0zm10.360092 -3.609375l1.640625 0.21875q-0.265625 1.6875 -1.375 2.65625q-1.109375 0.953125 -2.734375 0.953125q-2.015625 0 -3.25 -1.3125q-1.21875 -1.328125 -1.21875 -3.796875q0 -1.59375 0.515625 -2.78125q0.53125 -1.203125 1.609375 -1.796875q1.09375 -0.609375 2.359375 -0.609375q1.609375 0 2.625 0.8125q1.015625 0.8125 1.3125 2.3125l-1.625 0.25q-0.234375 -1.0 -0.828125 -1.5q-0.59375 -0.5 -1.421875 -0.5q-1.265625 0 -2.0625 0.90625q-0.78125 0.90625 -0.78125 2.859375q0 1.984375 0.765625 2.890625q0.765625 0.890625 1.984375 0.890625q0.984375 0 1.640625 -0.59375q0.65625 -0.609375 0.84375 -1.859375zm2.90625 3.609375l0 -13.59375l1.671875 0l0 7.75l3.953125 -4.015625l2.15625 0l-3.765625 3.65625l4.140625 6.203125l-2.0625 0l-3.25 -5.03125l-1.171875 1.125l0 3.90625l-1.671875 0zm16.0625 -3.171875l1.71875 0.21875q-0.40625 1.5 -1.515625 2.34375q-1.09375 0.828125 -2.8125 0.828125q-2.15625 0 -3.421875 -1.328125q-1.265625 -1.328125 -1.265625 -3.734375q0 -2.484375 1.265625 -3.859375q1.28125 -1.375 3.328125 -1.375q1.984375 0 3.234375 1.34375q1.25 1.34375 1.25 3.796875q0 0.140625 -0.015625 0.4375l-7.34375 0q0.09375 1.625 0.921875 2.484375q0.828125 0.859375 2.0625 0.859375q0.90625 0 1.546875 -0.46875q0.65625 -0.484375 1.046875 -1.546875zm-5.484375 -2.703125l5.5 0q-0.109375 -1.234375 -0.625 -1.859375q-0.796875 -0.96875 -2.078125 -0.96875q-1.140625 0 -1.9375 0.78125q-0.78125 0.765625 -0.859375 2.046875zm12.766342 4.375l0.234375 1.484375q-0.703125 0.140625 -1.265625 0.140625q-0.90625 0 -1.40625 -0.28125q-0.5 -0.296875 -0.703125 -0.75q-0.203125 -0.46875 -0.203125 -1.984375l0 -5.65625l-1.234375 0l0 -1.3125l1.234375 0l0 -2.4375l1.65625 -1.0l0 3.4375l1.6875 0l0 1.3125l-1.6875 0l0 5.75q0 0.71875 0.078125 0.921875q0.09375 0.203125 0.296875 0.328125q0.203125 0.125 0.578125 0.125q0.265625 0 0.734375 -0.078125zm11.600983 1.5l0 -3.25l-5.90625 0l0 -1.53125l6.21875 -8.8125l1.359375 0l0 8.8125l1.84375 0l0 1.53125l-1.84375 0l0 3.25l-1.671875 0zm0 -4.78125l0 -6.140625l-4.25 6.140625l4.25 0z" fill-rule="nonzero"></path><path fill="#cfe2f3" d="m172.0136 304.00787l0 70.01575l-125.00787 0l0 -70.01575z" fill-rule="nonzero"></path><path stroke="#000000" stroke-width="1.0" stroke-linejoin="round" stroke-linecap="butt" d="m172.0136 304.00787l0 70.01575l-125.00787 0l0 -70.01575z" fill-rule="nonzero"></path><path fill="#000000" d="m102.58967 332.95953l1.90625 0l0 1.90625l-1.90625 0l0 -1.90625zm0 5.183319l1.90625 0l0 1.90625l-1.90625 0l0 -1.90625zm0 5.1832886l1.90625 0l0 1.90625l-1.90625 0l0 -1.90625z" fill-rule="nonzero"></path><path fill="#cfe2f3" d="m379.24258 142.50764l0 0c-1.4058838 -8.217926 3.2098694 -16.353165 11.88855 -20.953651c8.678711 -4.600479 19.898346 -4.859375 28.89798 -0.66682434l0 0c3.1879272 -4.778244 9.022797 -8.077293 15.739685 -8.899246c6.716858 -0.8219528 13.526794 0.9297333 18.369904 4.725197l0 0c2.7157288 -4.33226 8.048096 -7.2429886 14.104889 -7.6993027c6.0568237 -0.4563141 11.9808655 1.606369 15.670044 5.456093l0 0c4.9063416 -4.592186 12.712463 -6.525688 20.040588 -4.963867c7.3281555 1.561821 12.862122 6.33844 14.207336 12.2630005l0 0c6.0111084 1.3041992 11.018188 4.619652 13.727661 9.089737c2.7094727 4.470093 2.8554688 9.656326 0.4003296 14.21875l0 0c5.9191895 6.1278076 7.303833 14.29306 3.637207 21.448593c-3.666626 7.155548 -11.833618 12.226364 -21.453247 13.320099c-0.06781006 6.7157288 -4.6982117 12.878006 -12.106415 16.111618c-7.4082336 3.233612 -16.43747 3.033615 -23.607422 -0.52290344c-3.0540466 8.043243 -11.650116 13.961395 -22.074432 15.197586c-10.424286 1.2361908 -20.808075 -2.4311981 -26.66513 -9.417725c-7.1795044 3.4436798 -15.794342 4.4356995 -23.901154 2.7522736c-8.106812 -1.6834259 -15.022705 -5.9004974 -19.187622 -11.699905l0 0c-7.3365784 0.68289185 -14.430023 -2.3405914 -17.759918 -7.569916c-3.3298645 -5.229309 -2.187317 -11.55127 2.8606262 -15.828293l0 0c-6.5444336 -3.0638733 -9.883789 -9.143585 -8.276733 -15.068817c1.6070557 -5.925247 7.7963257 -10.353317 15.340393 -10.975174z" fill-rule="nonzero"></path><path fill="#000000" fill-opacity="0.0" d="m372.03387 168.86836l0 0c3.0883484 1.4458466 6.656067 2.101715 10.224213 1.8795471m4.6734924 21.519196c1.5344238 -0.14283752 3.0384521 -0.44528198 4.473297 -0.89956665m38.613342 9.846832c-1.0792236 -1.2873383 -1.9827881 -2.6629639 -2.6953125 -4.1034393m51.436707 -1.6766815l0 0c0.5567932 -1.4664001 0.917572 -2.975647 1.0762634 -4.5025635m34.63623 -11.085587c0.07220459 -7.149933 -5.0332947 -13.696487 -13.123444 -16.827728m30.9393 -17.940216c-1.3101807 2.4346924 -3.3103027 4.594467 -5.843567 6.3099976m-8.283203 -29.61911l0 0c0.2232666 0.9831848 0.3265381 1.9811401 0.3085327 2.9800415m-34.555847 -10.278877l0 0c-1.223877 1.1455231 -2.2322083 2.4256287 -2.9935913 3.8004608m-26.781616 -1.5577545l0 0c-0.6522217 1.0404739 -1.1392517 2.1414642 -1.4498901 3.277626m-32.660187 0.8965149l0 0c1.9042969 0.88713837 3.6660461 1.9549103 5.2465515 3.1798477m-46.032562 18.440742l0 0c0.1937561 1.1326447 0.49990845 2.2513275 0.9155884 3.3455658" fill-rule="nonzero"></path><path stroke="#000000" stroke-width="1.0" stroke-linejoin="round" stroke-linecap="butt" d="m379.24258 142.50764l0 0c-1.4058838 -8.217926 3.2098694 -16.353165 11.88855 -20.953651c8.678711 -4.600479 19.898346 -4.859375 28.89798 -0.66682434l0 0c3.1879272 -4.778244 9.022797 -8.077293 15.739685 -8.899246c6.716858 -0.8219528 13.526794 0.9297333 18.369904 4.725197l0 0c2.7157288 -4.33226 8.048096 -7.2429886 14.104889 -7.6993027c6.0568237 -0.4563141 11.9808655 1.606369 15.670044 5.456093l0 0c4.9063416 -4.592186 12.712463 -6.525688 20.040588 -4.963867c7.3281555 1.561821 12.862122 6.33844 14.207336 12.2630005l0 0c6.0111084 1.3041992 11.018188 4.619652 13.727661 9.089737c2.7094727 4.470093 2.8554688 9.656326 0.4003296 14.21875l0 0c5.9191895 6.1278076 7.303833 14.29306 3.637207 21.448593c-3.666626 7.155548 -11.833618 12.226364 -21.453247 13.320099c-0.06781006 6.7157288 -4.6982117 12.878006 -12.106415 16.111618c-7.4082336 3.233612 -16.43747 3.033615 -23.607422 -0.52290344c-3.0540466 8.043243 -11.650116 13.961395 -22.074432 15.197586c-10.424286 1.2361908 -20.808075 -2.4311981 -26.66513 -9.417725c-7.1795044 3.4436798 -15.794342 4.4356995 -23.901154 2.7522736c-8.106812 -1.6834259 -15.022705 -5.9004974 -19.187622 -11.699905l0 0c-7.3365784 0.68289185 -14.430023 -2.3405914 -17.759918 -7.569916c-3.3298645 -5.229309 -2.187317 -11.55127 2.8606262 -15.828293l0 0c-6.5444336 -3.0638733 -9.883789 -9.143585 -8.276733 -15.068817c1.6070557 -5.925247 7.7963257 -10.353317 15.340393 -10.975174z" fill-rule="nonzero"></path><path stroke="#000000" stroke-width="1.0" stroke-linejoin="round" stroke-linecap="butt" d="m372.03387 168.86836l0 0c3.0883484 1.4458466 6.656067 2.101715 10.224213 1.8795471m4.6734924 21.519196c1.5344238 -0.14283752 3.0384521 -0.44528198 4.473297 -0.89956665m38.613342 9.846832c-1.0792236 -1.2873383 -1.9827881 -2.6629639 -2.6953125 -4.1034393m51.436707 -1.6766815l0 0c0.5567932 -1.4664001 0.917572 -2.975647 1.0762634 -4.5025635m34.63623 -11.085587c0.07220459 -7.149933 -5.0332947 -13.696487 -13.123444 -16.827728m30.9393 -17.940216c-1.3101807 2.4346924 -3.3103027 4.594467 -5.843567 6.3099976m-8.283203 -29.61911l0 0c0.2232666 0.9831848 0.3265381 1.9811401 0.3085327 2.9800415m-34.555847 -10.278877l0 0c-1.223877 1.1455231 -2.2322083 2.4256287 -2.9935913 3.8004608m-26.781616 -1.5577545l0 0c-0.6522217 1.0404739 -1.1392517 2.1414642 -1.4498901 3.277626m-32.660187 0.8965149l0 0c1.9042969 0.88713837 3.6660461 1.9549103 5.2465515 3.1798477m-46.032562 18.440742l0 0c0.1937561 1.1326447 0.49990845 2.2513275 0.9155884 3.3455658" fill-rule="nonzero"></path><path fill="#000000" d="m396.5017 163.0573l4.40625 -11.453125l1.640625 0l4.6875 11.453125l-1.734375 0l-1.328125 -3.46875l-4.796875 0l-1.25 3.46875l-1.625 0zm3.3125 -4.703125l3.890625 0l-1.203125 -3.171875q-0.546875 -1.453125 -0.8125 -2.375q-0.21875 1.09375 -0.609375 2.1875l-1.265625 3.359375zm8.421875 4.703125l0 -11.453125l1.40625 0l0 11.453125l-1.40625 0zm3.5546875 0l0 -11.453125l1.40625 0l0 11.453125l-1.40625 0zm3.0546875 -4.15625q0 -2.296875 1.28125 -3.40625q1.078125 -0.921875 2.609375 -0.921875q1.71875 0 2.796875 1.125q1.09375 1.109375 1.09375 3.09375q0 1.59375 -0.484375 2.515625q-0.484375 0.921875 -1.40625 1.4375q-0.90625 0.5 -2.0 0.5q-1.734375 0 -2.8125 -1.109375q-1.078125 -1.125 -1.078125 -3.234375zm1.453125 0q0 1.59375 0.6875 2.390625q0.703125 0.796875 1.75 0.796875q1.046875 0 1.734375 -0.796875q0.703125 -0.796875 0.703125 -2.4375q0 -1.53125 -0.703125 -2.328125q-0.6875 -0.796875 -1.734375 -0.796875q-1.046875 0 -1.75 0.796875q-0.6875 0.78125 -0.6875 2.375zm13.3828125 1.109375l1.390625 0.1875q-0.234375 1.421875 -1.171875 2.234375q-0.921875 0.8125 -2.28125 0.8125q-1.703125 0 -2.75 -1.109375q-1.03125 -1.125 -1.03125 -3.203125q0 -1.34375 0.4375 -2.34375q0.453125 -1.015625 1.359375 -1.515625q0.921875 -0.5 1.984375 -0.5q1.359375 0 2.21875 0.6875q0.859375 0.671875 1.09375 1.9375l-1.359375 0.203125q-0.203125 -0.828125 -0.703125 -1.25q-0.484375 -0.421875 -1.1875 -0.421875q-1.0625 0 -1.734375 0.765625q-0.65625 0.75 -0.65625 2.40625q0 1.671875 0.640625 2.4375q0.640625 0.75 1.671875 0.75q0.828125 0 1.375 -0.5q0.5625 -0.515625 0.703125 -1.578125zm8.0 2.015625q-0.78125 0.671875 -1.5 0.953125q-0.71875 0.265625 -1.546875 0.265625q-1.375 0 -2.109375 -0.671875q-0.734375 -0.671875 -0.734375 -1.703125q0 -0.609375 0.28125 -1.109375q0.28125 -0.515625 0.71875 -0.8125q0.453125 -0.3125 1.015625 -0.46875q0.421875 -0.109375 1.25 -0.203125q1.703125 -0.203125 2.515625 -0.484375q0 -0.296875 0 -0.375q0 -0.859375 -0.390625 -1.203125q-0.546875 -0.484375 -1.609375 -0.484375q-0.984375 0 -1.46875 0.359375q-0.46875 0.34375 -0.6875 1.21875l-1.375 -0.1875q0.1875 -0.875 0.609375 -1.421875q0.4375 -0.546875 1.25 -0.828125q0.8125 -0.296875 1.875 -0.296875q1.0625 0 1.71875 0.25q0.671875 0.25 0.984375 0.625q0.3125 0.375 0.4375 0.953125q0.078125 0.359375 0.078125 1.296875l0 1.875q0 1.96875 0.078125 2.484375q0.09375 0.515625 0.359375 1.0l-1.46875 0q-0.21875 -0.4375 -0.28125 -1.03125zm-0.109375 -3.140625q-0.765625 0.3125 -2.296875 0.53125q-0.875 0.125 -1.234375 0.28125q-0.359375 0.15625 -0.5625 0.46875q-0.1875 0.296875 -0.1875 0.65625q0 0.5625 0.421875 0.9375q0.4375 0.375 1.25 0.375q0.8125 0 1.4375 -0.34375q0.640625 -0.359375 0.9375 -0.984375q0.234375 -0.46875 0.234375 -1.40625l0 -0.515625zm6.6640625 2.90625l0.203125 1.25q-0.59375 0.125 -1.0625 0.125q-0.765625 0 -1.1875 -0.234375q-0.421875 -0.25 -0.59375 -0.640625q-0.171875 -0.40625 -0.171875 -1.671875l0 -4.765625l-1.03125 0l0 -1.09375l1.03125 0l0 -2.0625l1.40625 -0.84375l0 2.90625l1.40625 0l0 1.09375l-1.40625 0l0 4.84375q0 0.609375 0.0625 0.78125q0.078125 0.171875 0.25 0.28125q0.171875 0.09375 0.484375 0.09375q0.234375 0 0.609375 -0.0625zm1.3828125 -8.578125l0 -1.609375l1.40625 0l0 1.609375l-1.40625 0zm0 9.84375l0 -8.296875l1.40625 0l0 8.296875l-1.40625 0zm3.0234375 -4.15625q0 -2.296875 1.28125 -3.40625q1.078125 -0.921875 2.609375 -0.921875q1.71875 0 2.796875 1.125q1.09375 1.109375 1.09375 3.09375q0 1.59375 -0.484375 2.515625q-0.484375 0.921875 -1.40625 1.4375q-0.90625 0.5 -2.0 0.5q-1.734375 0 -2.8125 -1.109375q-1.078125 -1.125 -1.078125 -3.234375zm1.453125 0q0 1.59375 0.6875 2.390625q0.703125 0.796875 1.75 0.796875q1.046875 0 1.734375 -0.796875q0.703125 -0.796875 0.703125 -2.4375q0 -1.53125 -0.703125 -2.328125q-0.6875 -0.796875 -1.734375 -0.796875q-1.046875 0 -1.75 0.796875q-0.6875 0.78125 -0.6875 2.375zm7.9765625 4.15625l0 -8.296875l1.265625 0l0 1.171875q0.90625 -1.359375 2.640625 -1.359375q0.75 0 1.375 0.265625q0.625 0.265625 0.9375 0.703125q0.3125 0.4375 0.4375 1.046875q0.078125 0.390625 0.078125 1.359375l0 5.109375l-1.40625 0l0 -5.046875q0 -0.859375 -0.171875 -1.28125q-0.15625 -0.4375 -0.578125 -0.6875q-0.40625 -0.25 -0.96875 -0.25q-0.90625 0 -1.5625 0.578125q-0.640625 0.5625 -0.640625 2.15625l0 4.53125l-1.40625 0z" fill-rule="nonzero"></path><path fill="#000000" fill-opacity="0.0" d="m364.04218 159.55792l-192.03151 26.929138" fill-rule="nonzero"></path><path stroke="#000000" stroke-width="2.0" stroke-linejoin="round" stroke-linecap="butt" stroke-dasharray="8.0,6.0" d="m357.2544 160.5098l-185.24373 25.977264" fill-rule="evenodd"></path><path fill="#000000" stroke="#000000" stroke-width="2.0" stroke-linecap="butt" d="m357.2544 160.5098l-1.9150085 2.5397186l5.807312 -3.0855408l-6.432007 -1.3692017z" fill-rule="evenodd"></path><path fill="#000000" fill-opacity="0.0" d="m364.04218 159.55792l-192.03151 73.921265" fill-rule="nonzero"></path><path stroke="#000000" stroke-width="2.0" stroke-linejoin="round" stroke-linecap="butt" stroke-dasharray="8.0,6.0" d="m357.64554 162.02026l-185.63487 71.45892" fill-rule="evenodd"></path><path fill="#000000" stroke="#000000" stroke-width="2.0" stroke-linecap="butt" d="m357.64554 162.02026l-1.2910156 2.907013l4.959015 -4.318985l-6.575012 0.12095642z" fill-rule="evenodd"></path><path fill="#000000" fill-opacity="0.0" d="m364.04218 159.55792l-192.03151 120.944885" fill-rule="nonzero"></path><path stroke="#000000" stroke-width="2.0" stroke-linejoin="round" stroke-linecap="butt" stroke-dasharray="8.0,6.0" d="m358.2424 163.21071l-186.23174 117.2921" fill-rule="evenodd"></path><path fill="#000000" stroke="#000000" stroke-width="2.0" stroke-linecap="butt" d="m358.24243 163.21071l-0.7045288 3.1017914l4.030243 -5.196396l-6.4275208 1.390091z" fill-rule="evenodd"></path><path fill="#000000" fill-opacity="0.0" d="m185.10492 149.91968l92.25195 -12.724396l4.4094543 32.0l-92.25197 12.724396z" fill-rule="nonzero"></path><path fill="#000000" d="m199.19664 175.15086l-1.8556213 -13.466507l1.7955017 -0.24765015l0.7614441 5.5259094l6.9962616 -0.96499634l-0.7614441 -5.5259094l1.7800293 -0.24552917l1.8556213 13.466507l-1.7800293 0.24551392l-0.8744812 -6.346283l-6.9962616 0.9650116l0.8744812 6.346283l-1.7955017 0.24765015zm19.294205 -3.8915558q-0.81993103 0.917511 -1.6264496 1.3599854q-0.8086548 0.42700195 -1.7837982 0.5615082q-1.594284 0.21989441 -2.5677185 -0.43447876q-0.9755707 -0.66986084 -1.1440735 -1.8926849q-0.100250244 -0.7274933 0.14375305 -1.3605194q0.2440033 -0.6330261 0.72120667 -1.0616302q0.47721863 -0.42860413 1.1171875 -0.70614624q0.47612 -0.20762634 1.4363251 -0.45048523q1.9780731 -0.5252075 2.877472 -0.980484q-0.046920776 -0.3405304 -0.0597229 -0.43341064q-0.13864136 -1.0061188 -0.6605835 -1.3600006q-0.71139526 -0.46969604 -1.9651489 -0.2967682q-1.1608887 0.16012573 -1.6626587 0.6394348q-0.50177 0.47930908 -0.6198578 1.5681458l-1.6572418 -0.008010864q0.089279175 -1.0690918 0.4971466 -1.7720337q0.42333984 -0.7050934 1.3206024 -1.1758575q0.91059875 -0.4883728 2.17984 -0.6634369q1.2537537 -0.17294312 2.0681915 0.014419556q0.8144531 0.18734741 1.2477875 0.58499146q0.43333435 0.39764404 0.66648865 1.059494q0.15046692 0.4051056 0.30189514 1.5041046l0.30500793 2.2134552q0.31781006 2.3063354 0.49598694 2.912674q0.19152832 0.58872986 0.59336853 1.10112l-1.7335815 0.23912048q-0.3335266 -0.47450256 -0.49142456 -1.1625061zm-0.6469269 -3.6647186q-0.84869385 0.47982788 -2.623413 0.99276733q-1.0023804 0.2802124 -1.3947144 0.5235901q-0.39231873 0.24339294 -0.57543945 0.63142395q-0.18312073 0.38804626 -0.12339783 0.82144165q0.09172058 0.6655884 0.64888 1.0461578q0.57051086 0.36294556 1.5301666 0.23057556q0.959671 -0.13235474 1.64505 -0.652771q0.6832428 -0.5358734 0.9411316 -1.2969971q0.18421936 -0.6090088 0.03491211 -1.6925201l-0.08317566 -0.6036682zm3.6480255 1.5157471l1.6044464 -0.48944092q0.27581787 0.9714203 0.96746826 1.4123077q0.70500183 0.42326355 1.8349304 0.26741028q1.1454163 -0.1579895 1.623169 -0.69706726q0.49324036 -0.54122925 0.40792847 -1.1603699q-0.076797485 -0.5572357 -0.6014099 -0.81611633q-0.37039185 -0.16972351 -1.7639465 -0.32452393q-1.8904419 -0.21243286 -2.647232 -0.43927002q-0.743454 -0.24446106 -1.1959991 -0.78141785q-0.43917847 -0.5545654 -0.5372925 -1.2665863q-0.08958435 -0.65011597 0.12771606 -1.2479095q0.23278809 -0.5999298 0.6923981 -1.0418701q0.34855652 -0.33200073 0.9864044 -0.6250305q0.6378479 -0.29301453 1.3963013 -0.39762878q1.1608734 -0.16012573 2.0746002 0.06085205q0.9115753 0.20549011 1.3929291 0.722702q0.4947052 0.499588 0.77960205 1.4224396l-1.579895 0.43873596q-0.21073914 -0.72802734 -0.81007385 -1.0712433q-0.5859833 -0.36080933 -1.5456543 -0.22843933q-1.145401 0.1579895 -1.5719147 0.61112976q-0.42863464 0.4376831 -0.36038208 0.93299866q0.044784546 0.32505798 0.28227234 0.56044006q0.23747253 0.23538208 0.69433594 0.34587097q0.26045227 0.05871582 1.5146942 0.23271179q1.8130493 0.22311401 2.5501099 0.42114258q0.73706055 0.1980133 1.2029266 0.71736145q0.48136902 0.51719666 0.5986786 1.3685303q0.11303711 0.82037354 -0.26441956 1.6295471q-0.37957764 0.79367065 -1.2373505 1.3220825q-0.85990906 0.51293945 -2.0053253 0.67092896q-1.9038391 0.2625885 -3.0187225 -0.38804626q-1.0993958 -0.65278625 -1.5912933 -2.1622314zm10.30719 1.5436401l-1.8556213 -13.466507l1.656189 -0.22843933l0.6654663 4.829361q0.97532654 -1.5067749 2.7398682 -1.7501526q1.0834961 -0.14944458 1.9326172 0.17506409q0.86247253 0.30691528 1.3075104 1.0184021q0.46051025 0.7093506 0.6567383 2.1334076l0.8531647 6.1914825l-1.6562042 0.22843933l-0.8531494 -6.1914825q-0.17063904 -1.2383118 -0.7891693 -1.7208099q-0.6206665 -0.4980011 -1.5958099 -0.36349487q-0.7429657 0.10247803 -1.3397369 0.5791168q-0.5834198 0.45903015 -0.7703247 1.1630402q-0.18902588 0.6885376 -0.031188965 1.8339539l0.73583984 5.3401794l-1.656189 0.22843933zm14.14386 -1.950882l3.3296661 -14.181717l1.9193268 -0.26474l7.3659363 12.706467l-2.027649 0.27967834l-2.1419067 -3.8686218l-5.6341553 0.7771301l-0.9073639 4.2892l-1.9038544 0.26260376zm3.1236572 -6.061783l4.5661316 -0.6298218l-1.9092102 -3.553711q-0.8825836 -1.5975037 -1.3435974 -2.6537933q-0.083969116 1.3365021 -0.3734131 2.669815l-0.9399109 4.167511z" fill-rule="nonzero"></path><path fill="#000000" fill-opacity="0.0" d="m170.9081 199.27246l87.464554 -32.031494l12.2204895 33.32283l-87.46457 32.031494z" fill-rule="nonzero"></path><path fill="#000000" d="m190.05112 220.9303l-4.68042 -12.7625885l1.7019653 -0.623291l1.920578 5.2370605l6.631775 -2.4286957l-1.9205933 -5.2370605l1.6872864 -0.6179352l4.68042 12.762604l-1.6872864 0.6179199l-2.205719 -6.014557l-6.6317596 2.4286957l2.205719 6.014557l-1.7019653 0.623291zm18.027084 -7.899826q-0.60595703 1.0705414 -1.299942 1.6741333q-0.69937134 0.5889282 -1.623703 0.92744446q-1.5112152 0.5534363 -2.6018524 0.12086487q-1.095993 -0.44726562 -1.5209961 -1.6061554q-0.2528534 -0.68948364 -0.14916992 -1.3597565q0.10366821 -0.6702881 0.47879028 -1.1903839q0.3751068 -0.5200958 0.941452 -0.9271698q0.4210968 -0.30397034 1.3077698 -0.7451782q1.8212891 -0.93322754 2.603302 -1.5690613q-0.11834717 -0.32273865 -0.1506195 -0.41075134q-0.34970093 -0.9535217 -0.93510437 -1.1884155q-0.79522705 -0.3078003 -1.9836731 0.12742615q-1.1004028 0.40299988 -1.4887238 0.97784424q-0.38830566 0.57484436 -0.27191162 1.6637268l-1.6212616 0.34414673q-0.1403656 -1.0634613 0.108566284 -1.8368683q0.26361084 -0.7787628 1.0402527 -1.4292603q0.7859192 -0.6705475 1.9890289 -1.1111603q1.188446 -0.43522644 2.0242615 -0.4251709q0.8358154 0.010070801 1.3439636 0.3065338q0.50813293 0.296463 0.8768921 0.89356995q0.23329163 0.36383057 0.6152649 1.4053802l0.76930237 2.097763q0.80158997 2.1857758 1.1048126 2.740326q0.31251526 0.5345001 0.81430054 0.94976807l-1.6432648 0.60180664q-0.42695618 -0.39276123 -0.7277374 -1.0314026zm-1.4124451 -3.4430084q-0.7272339 0.64904785 -2.352417 1.5270996q-0.91993713 0.48666382 -1.2515259 0.8077698q-0.3315735 0.32110596 -0.42793274 0.7391205q-0.096343994 0.41799927 0.05429077 0.8287506q0.2313385 0.6307831 0.8568573 0.8842621q0.6348114 0.23342896 1.5444794 -0.09970093q0.90966797 -0.33314514 1.4686737 -0.98713684q0.5536194 -0.66867065 0.64360046 -1.4670563q0.05038452 -0.63412476 -0.3262024 -1.6609955l-0.20982361 -0.57211304zm3.8878021 0.70610046l1.4637756 -0.81895447q0.47636414 0.8905029 1.2461548 1.1743469q0.77908325 0.26379395 1.8501434 -0.12846375q1.0857391 -0.39761353 1.4378662 -1.0257721q0.36679077 -0.6335144 0.15159607 -1.2203064q-0.19366455 -0.5281067 -0.7614746 -0.66960144q-0.3981018 -0.0871582 -1.792923 0.05758667q-1.8927002 0.19393921 -2.6805878 0.13305664q-0.778595 -0.080947876 -1.3351593 -0.50942993q-0.5472717 -0.4485321 -0.79473877 -1.1233368q-0.22595215 -0.6161194 -0.14085388 -1.2463226q0.09976196 -0.63557434 0.45483398 -1.1649628q0.2699585 -0.39837646 0.83091736 -0.8201294q0.56095886 -0.4217682 1.279892 -0.68504333q1.1004028 -0.40299988 2.04039 -0.38116455q0.9346161 0.007156372 1.5151367 0.41023254q0.5898285 0.38302612 1.0647125 1.2241364l-1.4505768 0.76420593q-0.3609314 -0.6665344 -1.0197144 -0.8745575q-0.6494751 -0.22805786 -1.5591431 0.10508728q-1.0857391 0.39761353 -1.4060822 0.93092346q-0.3257141 0.51864624 -0.15356445 0.9880676q0.112976074 0.30807495 0.39517212 0.4875946q0.28219604 0.17953491 0.75219727 0.1904602q0.2670288 0.0020446777 1.5298004 -0.09434509q1.8193359 -0.16708374 2.581787 -0.13015747q0.76246643 0.03692627 1.3283234 0.44537354q0.58052063 0.40307617 0.8764038 1.2098999q0.285141 0.77749634 0.088531494 1.6482086q-0.20198059 0.8560486 -0.9277649 1.5544739q-0.7311554 0.6837616 -1.8168793 1.0813904q-1.8046722 0.66090393 -3.0327148 0.26200867q-1.2133789 -0.40426636 -2.0154572 -1.7745056zm10.4015045 -0.6809845l-4.68042 -12.7625885l1.5699158 -0.5749359l1.6784973 4.576935q0.63235474 -1.6792603 2.3049622 -2.291809q1.0270538 -0.37612915 1.9259644 -0.2394104q0.9082031 0.1166687 1.4945984 0.7172699q0.60105896 0.5952301 1.0960083 1.9448395l2.1519165 5.867859l-1.5699158 0.5749359l-2.1519165 -5.867859q-0.4303894 -1.1735687 -1.1375732 -1.5136108q-0.71258545 -0.35472107 -1.6369171 -0.016204834q-0.70425415 0.2579193 -1.1859894 0.8503418q-0.47244263 0.57237244 -0.50520325 1.299881q-0.038146973 0.71284485 0.35995483 1.7984009l1.8560333 5.06102l-1.5699158 0.5749359zm14.742142 -5.3988953l-4.68042 -12.762604l4.79776 -1.7570343q1.4525299 -0.5319519 2.4727325 -0.47294617q1.0348663 0.053649902 1.8296051 0.6777954q0.79473877 0.62413025 1.1175232 1.5043182q0.30126953 0.8215027 0.13009644 1.7161713q-0.17654419 0.88002014 -0.92481995 1.653244q1.2828217 -0.08708191 2.2003174 0.5087433q0.9321747 0.5904541 1.3410339 1.7053375q0.32817078 0.8948517 0.23182678 1.8120422q-0.08705139 0.89715576 -0.48857117 1.5267639q-0.40690613 0.6149292 -1.177185 1.1466217q-0.7610016 0.51164246 -1.978775 0.95762634l-4.8711243 1.7839203zm-1.0295105 -8.026093l2.7583466 -1.0101776q1.1297455 -0.41374207 1.5601349 -0.7377472q0.57562256 -0.42712402 0.7370148 -0.98542786q0.17607117 -0.5636749 -0.07141113 -1.2384796q-0.23132324 -0.63079834 -0.7169647 -1.0020599q-0.48565674 -0.3712616 -1.1224213 -0.33773804q-0.6274719 0.0134887695 -2.0066528 0.51856995l-2.5529327 0.9349365l1.4148865 3.8581238zm2.162674 5.8971863l3.183838 -1.1659851q0.82164 -0.30090332 1.1229095 -0.47779846q0.5492096 -0.3176117 0.85928345 -0.69740295q0.3046875 -0.39445496 0.381958 -0.9552307q0.07727051 -0.56077576 -0.14329529 -1.1622314q-0.26361084 -0.71881104 -0.8240814 -1.1125946q-0.5604706 -0.3937683 -1.2813568 -0.36271667q-0.7262726 0.01637268 -1.9440613 0.4623413l-2.963745 1.0854034l1.608551 4.386215z" fill-rule="nonzero"></path><path fill="#000000" fill-opacity="0.0" d="m170.90941 244.05043l79.401566 -48.661407l16.881897 27.559052l-79.40158 48.661423z" fill-rule="nonzero"></path><path fill="#000000" d="m193.93707 261.5111l-7.1007843 -11.591751l1.5453796 -0.9470825l2.9137726 4.7566223l6.021637 -3.6903687l-2.9137726 -4.7566223l1.5320587 -0.93891907l7.100769 11.591751l-1.5320435 0.93891907l-3.346344 -5.462784l-6.021637 3.690384l3.346344 5.4627686l-1.5453796 0.9470825zm16.11296 -11.30426q-0.3830719 1.1693878 -0.944397 1.8982391q-0.5694885 0.7155304 -1.408783 1.2298889q-1.3721924 0.8409424 -2.5263214 0.63197327q-1.1622925 -0.2223053 -1.8070831 -1.2748871q-0.38360596 -0.6262207 -0.4139862 -1.3039856q-0.030380249 -0.6777649 0.23484802 -1.2618103q0.26522827 -0.5840454 0.7401428 -1.0950012q0.3528595 -0.3811798 1.135025 -0.9888153q1.6013031 -1.2745667 2.2425537 -2.052414q-0.17956543 -0.29312134 -0.22853088 -0.37306213q-0.5305176 -0.86605835 -1.1505585 -0.9808655q-0.84002686 -0.14491272 -1.9191284 0.51641846q-0.99916077 0.6123352 -1.2665558 1.2526855q-0.26739502 0.64035034 0.06112671 1.6851654l-1.5212555 0.65740967q-0.34700012 -1.015152 -0.25532532 -1.8227081q0.10499573 -0.81570435 0.7380829 -1.6068573q0.6382599 -0.8126526 1.7306824 -1.4821472q1.0791016 -0.6613312 1.9002838 -0.81640625q0.82118225 -0.15507507 1.3776093 0.035369873q0.556427 0.19044495 1.0354462 0.70321655q0.30029297 0.3107605 0.87979126 1.2567444l1.1671295 1.9053192q1.2161102 1.98526 1.6225281 2.469223q0.41156006 0.46247864 0.9851532 0.77067566l-1.4920807 0.9144287q-0.4958191 -0.30088806 -0.9163971 -0.86779785zm-2.0624084 -3.0975952q-0.58496094 0.7799835 -2.0049133 1.9617462q-0.8058014 0.6587677 -1.0675659 1.039093q-0.26176453 0.38034058 -0.27386475 0.8092499q-0.0121154785 0.42892456 0.2164154 0.8019867q0.35095215 0.57292175 1.0139618 0.6980591q0.6681671 0.103637695 1.4941406 -0.40257263q0.8259735 -0.50619507 1.2450714 -1.257843q0.41093445 -0.7649689 0.3419037 -1.5656433q-0.07551575 -0.6317749 -0.6468353 -1.5644531l-0.3183136 -0.5196228zm3.9495697 -0.074798584l1.2733917 -1.0919495q0.6422577 0.7792511 1.452652 0.9056854q0.81555176 0.10493469 1.7880707 -0.4910736q0.98583984 -0.60417175 1.2072601 -1.2896423q0.23474121 -0.6936493 -0.09172058 -1.2266083q-0.2938385 -0.47964478 -0.8782196 -0.50634766q-0.40734863 -0.0069122314 -1.7459412 0.41027832q-1.8168793 0.5636902 -2.6010895 0.65945435q-0.779068 0.074279785 -1.4089508 -0.23606873q-0.6247101 -0.33184814 -1.0001678 -0.9447479q-0.3427887 -0.55960083 -0.38349915 -1.1943817q-0.027374268 -0.6429596 0.21636963 -1.2321625q0.18614197 -0.4439392 0.65289307 -0.9682312q0.4667511 -0.52427673 1.1195374 -0.9243469q0.999176 -0.6123352 1.9247742 -0.7764282q0.9174347 -0.17741394 1.5658112 0.103302q0.6535187 0.2592163 1.2846069 0.9903259l-1.2712402 1.0356445q-0.48501587 -0.58239746 -1.1716614 -0.6563873q-0.68148804 -0.09547424 -1.5074615 0.41073608q-0.9858551 0.60417175 -1.1947937 1.1903687q-0.21710205 0.572876 0.04408264 0.99923706q0.17138672 0.27980042 0.4833374 0.40016174q0.31193542 0.12037659 0.7747345 0.038330078q0.26213074 -0.050689697 1.4808197 -0.39439392q1.7502594 -0.5228882 2.504837 -0.63713074q0.75457764 -0.11425781 1.3896179 0.17462158q0.6483612 0.28070068 1.0972595 1.0135193q0.4325714 0.7061615 0.4113617 1.5988007q-0.029388428 0.87931824 -0.6031952 1.7074585q-0.58195496 0.8148041 -1.56781 1.4189758q-1.6386261 1.004242 -2.9208221 0.8554077q-1.2688751 -0.15698242 -2.3248444 -1.3424072zm10.060623 -2.7204132l-7.1007843 -11.591766l1.4254761 -0.8735962l2.5464935 4.1570435q0.28907776 -1.7715149 1.8078156 -2.7022705q0.93255615 -0.57151794 1.8405151 -0.6148529q0.91311646 -0.06480408 1.6061401 0.40844727q0.7063446 0.4650879 1.4572296 1.6908722l3.2647247 5.329544l-1.4254761 0.87361145l-3.2647247 -5.329544q-0.6529541 -1.0659027 -1.4130554 -1.2598114q-0.7682648 -0.20722961 -1.6075592 0.30714417q-0.63946533 0.39189148 -0.99494934 1.0679016q-0.35032654 0.65452576 -0.23916626 1.3744049q0.102996826 0.7065735 0.7069702 1.6925354l2.8158264 4.5967255l-1.4254761 0.87361145zm19.236176 -17.378326l1.768753 -0.55252075q0.6793823 2.185913 0.039230347 3.9526672q-0.6483154 1.7534332 -2.4601288 2.8638153q-1.8784332 1.1511993 -3.5160065 1.1102142q-1.6457367 -0.05430603 -3.1400452 -1.1177216q-1.5024567 -1.0767212 -2.5226898 -2.742218q-1.1100006 -1.8120422 -1.2549133 -3.5741425q-0.1315918 -1.7702637 0.7229309 -3.2469025q0.84635925 -1.4899597 2.3784027 -2.4288788q1.7452087 -1.0695496 3.4777222 -0.9035034q1.7243652 0.15274048 3.1700592 1.4658356l-1.2850342 1.2823486q-1.1750488 -1.0208435 -2.2986908 -1.120224q-1.1318054 -0.112701416 -2.2908325 0.5976105q-1.3322296 0.816452 -1.8463745 2.0111847q-0.5008087 1.1865692 -0.20457458 2.5077362q0.30142212 1.2996826 1.0033264 2.4455261q0.9059601 1.4789429 2.0097046 2.3235626q1.108902 0.8231354 2.3494568 0.81422424q1.2538605 -0.017074585 2.3063202 -0.66207886q1.2922516 -0.79196167 1.7359314 -2.0717926q0.43553162 -1.2931671 -0.1425476 -2.9547424z" fill-rule="nonzero"></path></g></svg>

