<?xml version="1.0" standalone="yes"?>

<svg version="1.1" viewBox="0.0 0.0 1280.0 960.0" fill="none" stroke="none" stroke-linecap="square" stroke-miterlimit="10" xmlns="http://www.w3.org/2000/svg" xmlns:xlink="http://www.w3.org/1999/xlink"><clipPath id="p.0"><path d="m0 0l1280.0 0l0 960.0l-1280.0 0l0 -960.0z" clip-rule="nonzero"></path></clipPath><g clip-path="url(#p.0)"><path fill="#000000" fill-opacity="0.0" d="m0 0l1280.0 0l0 960.0l-1280.0 0z" fill-rule="nonzero"></path><path fill="#000000" fill-opacity="0.0" d="m188.0 345.0l845.00793 0" fill-rule="nonzero"></path><path stroke="#000000" stroke-width="1.0" stroke-linejoin="round" stroke-linecap="butt" d="m188.0 345.0l845.00793 0" fill-rule="nonzero"></path><path fill="#000000" fill-opacity="0.0" d="m48.0 373.0l169.00787 0l0 48.0l-169.00787 0z" fill-rule="nonzero"></path><path fill="#000000" d="m56.96875 399.91998l5.234375 -13.59375l1.9375 0l5.5625 13.59375l-2.046875 0l-1.59375 -4.125l-5.6875 0l-1.484375 4.125l-1.921875 0zm3.921875 -5.578125l4.609375 0l-1.40625 -3.78125q-0.65625 -1.703125 -0.96875 -2.8125q-0.265625 1.3125 -0.734375 2.59375l-1.5 4.0zm16.193573 5.578125l0 -1.25q-0.9375 1.46875 -2.75 1.46875q-1.171875 0 -2.171875 -0.640625q-0.984375 -0.65625 -1.53125 -1.8125q-0.53125 -1.171875 -0.53125 -2.6875q0 -1.46875 0.484375 -2.671875q0.5 -1.203125 1.46875 -1.84375q0.984375 -0.640625 2.203125 -0.640625q0.890625 0 1.578125 0.375q0.703125 0.375 1.140625 0.984375l0 -4.875l1.65625 0l0 13.59375l-1.546875 0zm-5.28125 -4.921875q0 1.890625 0.796875 2.828125q0.8125 0.9375 1.890625 0.9375q1.09375 0 1.859375 -0.890625q0.765625 -0.890625 0.765625 -2.734375q0 -2.015625 -0.78125 -2.953125q-0.78125 -0.953125 -1.921875 -0.953125q-1.109375 0 -1.859375 0.90625q-0.75 0.90625 -0.75 2.859375zm15.656967 4.921875l0 -1.25q-0.9375 1.46875 -2.75 1.46875q-1.171875 0 -2.171875 -0.640625q-0.984375 -0.65625 -1.53125 -1.8125q-0.53125 -1.171875 -0.53125 -2.6875q0 -1.46875 0.484375 -2.671875q0.5 -1.203125 1.46875 -1.84375q0.984375 -0.640625 2.203125 -0.640625q0.890625 0 1.578125 0.375q0.703125 0.375 1.140625 0.984375l0 -4.875l1.65625 0l0 13.59375l-1.546875 0zm-5.28125 -4.921875q0 1.890625 0.796875 2.828125q0.8125 0.9375 1.890625 0.9375q1.09375 0 1.859375 -0.890625q0.765625 -0.890625 0.765625 -2.734375q0 -2.015625 -0.78125 -2.953125q-0.78125 -0.953125 -1.921875 -0.953125q-1.109375 0 -1.859375 0.90625q-0.75 0.90625 -0.75 2.859375zm9.250717 4.921875l0 -9.859375l1.5 0l0 1.5q0.578125 -1.046875 1.0625 -1.375q0.484375 -0.34375 1.078125 -0.34375q0.84375 0 1.71875 0.546875l-0.578125 1.546875q-0.609375 -0.359375 -1.234375 -0.359375q-0.546875 0 -0.984375 0.328125q-0.421875 0.328125 -0.609375 0.90625q-0.28125 0.890625 -0.28125 1.953125l0 5.15625l-1.671875 0zm12.978302 -3.171875l1.71875 0.21875q-0.40625 1.5 -1.515625 2.34375q-1.09375 0.828125 -2.8125 0.828125q-2.15625 0 -3.421875 -1.328125q-1.265625 -1.328125 -1.265625 -3.734375q0 -2.484375 1.265625 -3.859375q1.28125 -1.375 3.328125 -1.375q1.984375 0 3.234375 1.34375q1.25 1.34375 1.25 3.796875q0 0.140625 -0.015625 0.4375l-7.34375 0q0.09375 1.625 0.921875 2.484375q0.828125 0.859375 2.0625 0.859375q0.90625 0 1.546875 -0.46875q0.65625 -0.484375 1.046875 -1.546875zm-5.484375 -2.703125l5.5 0q-0.109375 -1.234375 -0.625 -1.859375q-0.796875 -0.96875 -2.078125 -0.96875q-1.140625 0 -1.9375 0.78125q-0.78125 0.765625 -0.859375 2.046875zm8.438217 2.9375l1.65625 -0.265625q0.140625 1.0 0.765625 1.53125q0.640625 0.515625 1.78125 0.515625q1.15625 0 1.703125 -0.46875q0.5625 -0.46875 0.5625 -1.09375q0 -0.5625 -0.484375 -0.890625q-0.34375 -0.21875 -1.703125 -0.5625q-1.84375 -0.46875 -2.5625 -0.796875q-0.703125 -0.34375 -1.078125 -0.9375q-0.359375 -0.609375 -0.359375 -1.328125q0 -0.65625 0.296875 -1.21875q0.3125 -0.5625 0.828125 -0.9375q0.390625 -0.28125 1.0625 -0.484375q0.671875 -0.203125 1.4375 -0.203125q1.171875 0 2.046875 0.34375q0.875 0.328125 1.28125 0.90625q0.421875 0.5625 0.578125 1.515625l-1.625 0.21875q-0.109375 -0.75 -0.65625 -1.171875q-0.53125 -0.4375 -1.5 -0.4375q-1.15625 0 -1.640625 0.390625q-0.484375 0.375 -0.484375 0.875q0 0.328125 0.203125 0.59375q0.203125 0.265625 0.640625 0.4375q0.25 0.09375 1.46875 0.4375q1.765625 0.46875 2.46875 0.765625q0.703125 0.296875 1.09375 0.875q0.40625 0.578125 0.40625 1.4375q0 0.828125 -0.484375 1.578125q-0.484375 0.734375 -1.40625 1.140625q-0.921875 0.390625 -2.078125 0.390625q-1.921875 0 -2.9375 -0.796875q-1.0 -0.796875 -1.28125 -2.359375zm9.328125 0l1.65625 -0.265625q0.140625 1.0 0.765625 1.53125q0.640625 0.515625 1.78125 0.515625q1.15625 0 1.703125 -0.46875q0.5625 -0.46875 0.5625 -1.09375q0 -0.5625 -0.484375 -0.890625q-0.34375 -0.21875 -1.703125 -0.5625q-1.84375 -0.46875 -2.5625 -0.796875q-0.703125 -0.34375 -1.078125 -0.9375q-0.359375 -0.609375 -0.359375 -1.328125q0 -0.65625 0.296875 -1.21875q0.3125 -0.5625 0.828125 -0.9375q0.390625 -0.28125 1.0625 -0.484375q0.671875 -0.203125 1.4375 -0.203125q1.171875 0 2.046875 0.34375q0.875 0.328125 1.28125 0.90625q0.421875 0.5625 0.578125 1.515625l-1.625 0.21875q-0.109375 -0.75 -0.65625 -1.171875q-0.53125 -0.4375 -1.5 -0.4375q-1.15625 0 -1.640625 0.390625q-0.484375 0.375 -0.484375 0.875q0 0.328125 0.203125 0.59375q0.203125 0.265625 0.640625 0.4375q0.25 0.09375 1.46875 0.4375q1.765625 0.46875 2.46875 0.765625q0.703125 0.296875 1.09375 0.875q0.40625 0.578125 0.40625 1.4375q0 0.828125 -0.484375 1.578125q-0.484375 0.734375 -1.40625 1.140625q-0.921875 0.390625 -2.078125 0.390625q-1.921875 0 -2.9375 -0.796875q-1.0 -0.796875 -1.28125 -2.359375zm14.511429 0l1.65625 -0.265625q0.140625 1.0 0.765625 1.53125q0.640625 0.515625 1.78125 0.515625q1.15625 0 1.703125 -0.46875q0.5625 -0.46875 0.5625 -1.09375q0 -0.5625 -0.484375 -0.890625q-0.34375 -0.21875 -1.703125 -0.5625q-1.84375 -0.46875 -2.5625 -0.796875q-0.703125 -0.34375 -1.078125 -0.9375q-0.359375 -0.609375 -0.359375 -1.328125q0 -0.65625 0.296875 -1.21875q0.3125 -0.5625 0.828125 -0.9375q0.390625 -0.28125 1.0625 -0.484375q0.671875 -0.203125 1.4375 -0.203125q1.171875 0 2.046875 0.34375q0.875 0.328125 1.28125 0.90625q0.421875 0.5625 0.578125 1.515625l-1.625 0.21875q-0.109375 -0.75 -0.65625 -1.171875q-0.53125 -0.4375 -1.5 -0.4375q-1.15625 0 -1.640625 0.390625q-0.484375 0.375 -0.484375 0.875q0 0.328125 0.203125 0.59375q0.203125 0.265625 0.640625 0.4375q0.25 0.09375 1.46875 0.4375q1.765625 0.46875 2.46875 0.765625q0.703125 0.296875 1.09375 0.875q0.40625 0.578125 0.40625 1.4375q0 0.828125 -0.484375 1.578125q-0.484375 0.734375 -1.40625 1.140625q-0.921875 0.390625 -2.078125 0.390625q-1.921875 0 -2.9375 -0.796875q-1.0 -0.796875 -1.28125 -2.359375zm10.0 6.71875l0 -13.640625l1.53125 0l0 1.28125q0.53125 -0.75 1.203125 -1.125q0.6875 -0.375 1.640625 -0.375q1.265625 0 2.234375 0.65625q0.96875 0.640625 1.453125 1.828125q0.5 1.1875 0.5 2.59375q0 1.515625 -0.546875 2.734375q-0.546875 1.203125 -1.578125 1.84375q-1.03125 0.640625 -2.171875 0.640625q-0.84375 0 -1.515625 -0.34375q-0.65625 -0.359375 -1.078125 -0.890625l0 4.796875l-1.671875 0zm1.515625 -8.65625q0 1.90625 0.765625 2.8125q0.78125 0.90625 1.875 0.90625q1.109375 0 1.890625 -0.9375q0.796875 -0.9375 0.796875 -2.921875q0 -1.875 -0.78125 -2.8125q-0.765625 -0.9375 -1.84375 -0.9375q-1.0625 0 -1.890625 1.0q-0.8125 1.0 -0.8125 2.890625zm15.297592 3.65625q-0.9375 0.796875 -1.796875 1.125q-0.859375 0.3125 -1.84375 0.3125q-1.609375 0 -2.484375 -0.78125q-0.875 -0.796875 -0.875 -2.03125q0 -0.734375 0.328125 -1.328125q0.328125 -0.59375 0.859375 -0.953125q0.53125 -0.359375 1.203125 -0.546875q0.5 -0.140625 1.484375 -0.25q2.03125 -0.25 2.984375 -0.578125q0 -0.34375 0 -0.4375q0 -1.015625 -0.46875 -1.4375q-0.640625 -0.5625 -1.90625 -0.5625q-1.171875 0 -1.734375 0.40625q-0.5625 0.40625 -0.828125 1.46875l-1.640625 -0.234375q0.234375 -1.046875 0.734375 -1.6875q0.515625 -0.640625 1.46875 -0.984375q0.96875 -0.359375 2.25 -0.359375q1.265625 0 2.046875 0.296875q0.78125 0.296875 1.15625 0.75q0.375 0.453125 0.515625 1.140625q0.09375 0.421875 0.09375 1.53125l0 2.234375q0 2.328125 0.09375 2.953125q0.109375 0.609375 0.4375 1.171875l-1.75 0q-0.265625 -0.515625 -0.328125 -1.21875zm-0.140625 -3.71875q-0.90625 0.359375 -2.734375 0.625q-1.03125 0.140625 -1.453125 0.328125q-0.421875 0.1875 -0.65625 0.546875q-0.234375 0.359375 -0.234375 0.796875q0 0.671875 0.5 1.125q0.515625 0.4375 1.484375 0.4375q0.96875 0 1.71875 -0.421875q0.75 -0.4375 1.109375 -1.15625q0.265625 -0.578125 0.265625 -1.671875l0 -0.609375zm10.516342 1.328125l1.640625 0.21875q-0.265625 1.6875 -1.375 2.65625q-1.109375 0.953125 -2.734375 0.953125q-2.015625 0 -3.25 -1.3125q-1.21875 -1.328125 -1.21875 -3.796875q0 -1.59375 0.515625 -2.78125q0.53125 -1.203125 1.609375 -1.796875q1.09375 -0.609375 2.359375 -0.609375q1.609375 0 2.625 0.8125q1.015625 0.8125 1.3125 2.3125l-1.625 0.25q-0.234375 -1.0 -0.828125 -1.5q-0.59375 -0.5 -1.421875 -0.5q-1.265625 0 -2.0625 0.90625q-0.78125 0.90625 -0.78125 2.859375q0 1.984375 0.765625 2.890625q0.765625 0.890625 1.984375 0.890625q0.984375 0 1.640625 -0.59375q0.65625 -0.609375 0.84375 -1.859375zm9.640625 0.4375l1.71875 0.21875q-0.40625 1.5 -1.515625 2.34375q-1.09375 0.828125 -2.8125 0.828125q-2.15625 0 -3.421875 -1.328125q-1.265625 -1.328125 -1.265625 -3.734375q0 -2.484375 1.265625 -3.859375q1.28125 -1.375 3.328125 -1.375q1.984375 0 3.234375 1.34375q1.25 1.34375 1.25 3.796875q0 0.140625 -0.015625 0.4375l-7.34375 0q0.09375 1.625 0.921875 2.484375q0.828125 0.859375 2.0625 0.859375q0.90625 0 1.546875 -0.46875q0.65625 -0.484375 1.046875 -1.546875zm-5.484375 -2.703125l5.5 0q-0.109375 -1.234375 -0.625 -1.859375q-0.796875 -0.96875 -2.078125 -0.96875q-1.140625 0 -1.9375 0.78125q-0.78125 0.765625 -0.859375 2.046875zm9.578842 -2.078125l0 -1.90625l1.90625 0l0 1.90625l-1.90625 0zm0 7.953125l0 -1.90625l1.90625 0l0 1.90625l-1.90625 0z" fill-rule="nonzero"></path><path fill="#000000" fill-opacity="0.0" d="m188.0 449.0l845.00793 0" fill-rule="nonzero"></path><path stroke="#000000" stroke-width="1.0" stroke-linejoin="round" stroke-linecap="butt" d="m188.0 449.0l845.00793 0" fill-rule="nonzero"></path><path fill="#cccccc" d="m244.0 345.0l121.00787 0l0 104.0l-121.00787 0z" fill-rule="nonzero"></path><path stroke="#000000" stroke-width="1.0" stroke-linejoin="round" stroke-linecap="butt" d="m244.0 345.0l121.00787 0l0 104.0l-121.00787 0z" fill-rule="nonzero"></path><path fill="#ffffff" d="m365.00787 345.0l121.00787 0l0 104.0l-121.00787 0z" fill-rule="nonzero"></path><path stroke="#000000" stroke-width="1.0" stroke-linejoin="round" stroke-linecap="butt" d="m365.00787 345.0l121.00787 0l0 104.0l-121.00787 0z" fill-rule="nonzero"></path><path fill="#cccccc" d="m486.01575 345.0l121.00787 0l0 104.0l-121.00787 0z" fill-rule="nonzero"></path><path stroke="#000000" stroke-width="1.0" stroke-linejoin="round" stroke-linecap="butt" d="m486.01575 345.0l121.00787 0l0 104.0l-121.00787 0z" fill-rule="nonzero"></path><path fill="#ffffff" d="m607.0236 345.0l121.00787 0l0 104.0l-121.00787 0z" fill-rule="nonzero"></path><path stroke="#000000" stroke-width="1.0" stroke-linejoin="round" stroke-linecap="butt" d="m607.0236 345.0l121.00787 0l0 104.0l-121.00787 0z" fill-rule="nonzero"></path><path fill="#cccccc" d="m728.0315 345.0l121.00787 0l0 104.0l-121.00787 0z" fill-rule="nonzero"></path><path stroke="#000000" stroke-width="1.0" stroke-linejoin="round" stroke-linecap="butt" d="m728.0315 345.0l121.00787 0l0 104.0l-121.00787 0z" fill-rule="nonzero"></path><path fill="#ffffff" d="m849.03937 345.0l121.00787 0l0 104.0l-121.00787 0z" fill-rule="nonzero"></path><path stroke="#000000" stroke-width="1.0" stroke-linejoin="round" stroke-linecap="butt" d="m849.03937 345.0l121.00787 0l0 104.0l-121.00787 0z" fill-rule="nonzero"></path><path fill="#000000" fill-opacity="0.0" d="m222.0 460.0l106.99213 0l0 58.015747l-106.99213 0z" fill-rule="nonzero"></path><path fill="#000000" d="m231.14062 486.91998l3.59375 -5.125l-3.328125 -4.734375l2.09375 0l1.515625 2.3125q0.421875 0.65625 0.671875 1.109375q0.421875 -0.609375 0.765625 -1.09375l1.65625 -2.328125l1.984375 0l-3.390625 4.640625l3.65625 5.21875l-2.046875 0l-2.03125 -3.0625l-0.53125 -0.828125l-2.59375 3.890625l-2.015625 0zm14.964554 -11.109375l0.421875 -1.3125q1.484375 0.515625 2.140625 0.90625q-0.171875 -1.6875 -0.171875 -2.3125l1.34375 0q-0.03125 0.90625 -0.21875 2.296875q0.953125 -0.484375 2.1875 -0.890625l0.421875 1.3125q-1.171875 0.390625 -2.296875 0.53125q0.5625 0.484375 1.59375 1.75l-1.109375 0.78125q-0.546875 -0.734375 -1.28125 -1.984375q-0.6875 1.296875 -1.203125 1.984375l-1.09375 -0.78125q1.078125 -1.328125 1.53125 -1.75q-1.1875 -0.234375 -2.265625 -0.53125zm21.412338 9.5l0 1.609375l-8.984375 0q-0.015625 -0.609375 0.1875 -1.15625q0.34375 -0.921875 1.09375 -1.8125q0.765625 -0.890625 2.1875 -2.0625q2.21875 -1.8125 3.0 -2.875q0.78125 -1.0625 0.78125 -2.015625q0 -0.984375 -0.71875 -1.671875q-0.703125 -0.6875 -1.84375 -0.6875q-1.203125 0 -1.9375 0.734375q-0.71875 0.71875 -0.71875 2.0l-1.71875 -0.171875q0.171875 -1.921875 1.328125 -2.921875q1.15625 -1.015625 3.09375 -1.015625q1.953125 0 3.09375 1.09375q1.140625 1.078125 1.140625 2.6875q0 0.8125 -0.34375 1.609375q-0.328125 0.78125 -1.109375 1.65625q-0.765625 0.859375 -2.5625 2.390625q-1.5 1.265625 -1.9375 1.71875q-0.421875 0.4375 -0.703125 0.890625l6.671875 0z" fill-rule="nonzero"></path><path fill="#000000" d="m272.79947 479.91998l-1.046875 0l0 -6.71875q-0.390625 0.359375 -1.015625 0.734375q-0.609375 0.359375 -1.09375 0.53125l0 -1.015625q0.875 -0.421875 1.53125 -1.0q0.671875 -0.59375 0.953125 -1.15625l0.671875 0l0 8.625zm3.1045227 -1.984375l1.015625 -0.09375q0.125 0.71875 0.484375 1.046875q0.375 0.3125 0.9375 0.3125q0.484375 0 0.84375 -0.21875q0.375 -0.234375 0.609375 -0.59375q0.234375 -0.375 0.390625 -1.0q0.15625 -0.640625 0.15625 -1.296875q0 -0.078125 0 -0.21875q-0.3125 0.5 -0.859375 0.828125q-0.546875 0.3125 -1.1875 0.3125q-1.078125 0 -1.8125 -0.765625q-0.734375 -0.78125 -0.734375 -2.046875q0 -1.3125 0.765625 -2.109375q0.78125 -0.796875 1.9375 -0.796875q0.828125 0 1.515625 0.453125q0.703125 0.453125 1.0625 1.296875q0.359375 0.828125 0.359375 2.40625q0 1.640625 -0.359375 2.625q-0.34375 0.96875 -1.0625 1.484375q-0.703125 0.5 -1.640625 0.5q-1.015625 0 -1.65625 -0.546875q-0.640625 -0.5625 -0.765625 -1.578125zm4.3125 -3.796875q0 -0.90625 -0.484375 -1.4375q-0.46875 -0.53125 -1.15625 -0.53125q-0.703125 0 -1.234375 0.578125q-0.515625 0.5625 -0.515625 1.484375q0 0.8125 0.5 1.328125q0.5 0.515625 1.21875 0.515625q0.734375 0 1.203125 -0.515625q0.46875 -0.515625 0.46875 -1.421875z" fill-rule="nonzero"></path><path fill="#000000" fill-opacity="0.0" d="m332.98688 460.0l126.99213 0l0 58.015747l-126.99213 0z" fill-rule="nonzero"></path><path fill="#000000" d="m346.42438 490.91998q-1.375 -1.75 -2.328125 -4.078125q-0.953125 -2.34375 -0.953125 -4.84375q0 -2.21875 0.703125 -4.234375q0.84375 -2.34375 2.578125 -4.671875l1.203125 0q-1.125 1.921875 -1.484375 2.75q-0.5625 1.28125 -0.890625 2.671875q-0.40625 1.734375 -0.40625 3.484375q0 4.46875 2.78125 8.921875l-1.203125 0zm1.915802 -4.0l3.59375 -5.125l-3.328125 -4.734375l2.09375 0l1.515625 2.3125q0.421875 0.65625 0.671875 1.109375q0.421875 -0.609375 0.765625 -1.09375l1.65625 -2.328125l1.984375 0l-3.390625 4.640625l3.65625 5.21875l-2.046875 0l-2.03125 -3.0625l-0.53125 -0.828125l-2.59375 3.890625l-2.015625 0zm13.953125 -2.203125l0 -3.71875l-3.703125 0l0 -1.5625l3.703125 0l0 -3.703125l1.578125 0l0 3.703125l3.6875 0l0 1.5625l-3.6875 0l0 3.71875l-1.578125 0zm13.2074585 2.203125l-1.671875 0l0 -10.640625q-0.59375 0.578125 -1.578125 1.15625q-0.984375 0.5625 -1.765625 0.859375l0 -1.625q1.40625 -0.65625 2.453125 -1.59375q1.046875 -0.9375 1.484375 -1.8125l1.078125 0l0 13.65625zm5.641327 4.0l-1.1875 0q2.765625 -4.453125 2.765625 -8.921875q0 -1.734375 -0.390625 -3.453125q-0.328125 -1.390625 -0.890625 -2.671875q-0.359375 -0.84375 -1.484375 -2.78125l1.1875 0q1.75 2.328125 2.578125 4.671875q0.71875 2.015625 0.71875 4.234375q0 2.5 -0.96875 4.84375q-0.953125 2.328125 -2.328125 4.078125zm9.645996 -15.109375l0.421875 -1.3125q1.484375 0.515625 2.140625 0.90625q-0.171875 -1.6875 -0.171875 -2.3125l1.34375 0q-0.03125 0.90625 -0.21875 2.296875q0.953125 -0.484375 2.1875 -0.890625l0.421875 1.3125q-1.171875 0.390625 -2.296875 0.53125q0.5625 0.484375 1.59375 1.75l-1.109375 0.78125q-0.546875 -0.734375 -1.28125 -1.984375q-0.6875 1.296875 -1.203125 1.984375l-1.09375 -0.78125q1.078125 -1.328125 1.53125 -1.75q-1.1875 -0.234375 -2.265625 -0.53125zm21.412323 9.5l0 1.609375l-8.984375 0q-0.015625 -0.609375 0.1875 -1.15625q0.34375 -0.921875 1.09375 -1.8125q0.765625 -0.890625 2.1875 -2.0625q2.21875 -1.8125 3.0 -2.875q0.78125 -1.0625 0.78125 -2.015625q0 -0.984375 -0.71875 -1.671875q-0.703125 -0.6875 -1.84375 -0.6875q-1.203125 0 -1.9375 0.734375q-0.71875 0.71875 -0.71875 2.0l-1.71875 -0.171875q0.171875 -1.921875 1.328125 -2.921875q1.15625 -1.015625 3.09375 -1.015625q1.953125 0 3.09375 1.09375q1.140625 1.078125 1.140625 2.6875q0 0.8125 -0.34375 1.609375q-0.328125 0.78125 -1.109375 1.65625q-0.765625 0.859375 -2.5625 2.390625q-1.5 1.265625 -1.9375 1.71875q-0.421875 0.4375 -0.703125 0.890625l6.671875 0z" fill-rule="nonzero"></path><path fill="#000000" d="m417.48236 479.91998l-1.046875 0l0 -6.71875q-0.390625 0.359375 -1.015625 0.734375q-0.609375 0.359375 -1.09375 0.53125l0 -1.015625q0.875 -0.421875 1.53125 -1.0q0.671875 -0.59375 0.953125 -1.15625l0.671875 0l0 8.625zm3.1045532 -1.984375l1.015625 -0.09375q0.125 0.71875 0.484375 1.046875q0.375 0.3125 0.9375 0.3125q0.484375 0 0.84375 -0.21875q0.375 -0.234375 0.609375 -0.59375q0.234375 -0.375 0.390625 -1.0q0.15625 -0.640625 0.15625 -1.296875q0 -0.078125 0 -0.21875q-0.3125 0.5 -0.859375 0.828125q-0.546875 0.3125 -1.1875 0.3125q-1.078125 0 -1.8125 -0.765625q-0.734375 -0.78125 -0.734375 -2.046875q0 -1.3125 0.765625 -2.109375q0.78125 -0.796875 1.9375 -0.796875q0.828125 0 1.515625 0.453125q0.703125 0.453125 1.0625 1.296875q0.359375 0.828125 0.359375 2.40625q0 1.640625 -0.359375 2.625q-0.34375 0.96875 -1.0625 1.484375q-0.703125 0.5 -1.640625 0.5q-1.015625 0 -1.65625 -0.546875q-0.640625 -0.5625 -0.765625 -1.578125zm4.3125 -3.796875q0 -0.90625 -0.484375 -1.4375q-0.46875 -0.53125 -1.15625 -0.53125q-0.703125 0 -1.234375 0.578125q-0.515625 0.5625 -0.515625 1.484375q0 0.8125 0.5 1.328125q0.5 0.515625 1.21875 0.515625q0.734375 0 1.203125 -0.515625q0.46875 -0.515625 0.46875 -1.421875z" fill-rule="nonzero"></path><path fill="#000000" fill-opacity="0.0" d="m463.97244 460.0l126.992096 0l0 58.015747l-126.992096 0z" fill-rule="nonzero"></path><path fill="#000000" d="m477.40994 490.91998q-1.375 -1.75 -2.328125 -4.078125q-0.953125 -2.34375 -0.953125 -4.84375q0 -2.21875 0.703125 -4.234375q0.84375 -2.34375 2.578125 -4.671875l1.203125 0q-1.125 1.921875 -1.484375 2.75q-0.5625 1.28125 -0.890625 2.671875q-0.40625 1.734375 -0.40625 3.484375q0 4.46875 2.78125 8.921875l-1.203125 0zm1.915802 -4.0l3.59375 -5.125l-3.328125 -4.734375l2.09375 0l1.515625 2.3125q0.421875 0.65625 0.671875 1.109375q0.421875 -0.609375 0.765625 -1.09375l1.65625 -2.328125l1.984375 0l-3.390625 4.640625l3.65625 5.21875l-2.046875 0l-2.03125 -3.0625l-0.53125 -0.828125l-2.59375 3.890625l-2.015625 0zm13.953125 -2.203125l0 -3.71875l-3.703125 0l0 -1.5625l3.703125 0l0 -3.703125l1.578125 0l0 3.703125l3.6875 0l0 1.5625l-3.6875 0l0 3.71875l-1.578125 0zm15.6918335 0.59375l0 1.609375l-8.984375 0q-0.015625 -0.609375 0.1875 -1.15625q0.34375 -0.921875 1.09375 -1.8125q0.765625 -0.890625 2.1875 -2.0625q2.21875 -1.8125 3.0 -2.875q0.78125 -1.0625 0.78125 -2.015625q0 -0.984375 -0.71875 -1.671875q-0.703125 -0.6875 -1.84375 -0.6875q-1.203125 0 -1.9375 0.734375q-0.71875 0.71875 -0.71875 2.0l-1.71875 -0.171875q0.171875 -1.921875 1.328125 -2.921875q1.15625 -1.015625 3.09375 -1.015625q1.953125 0 3.09375 1.09375q1.140625 1.078125 1.140625 2.6875q0 0.8125 -0.34375 1.609375q-0.328125 0.78125 -1.109375 1.65625q-0.765625 0.859375 -2.5625 2.390625q-1.5 1.265625 -1.9375 1.71875q-0.421875 0.4375 -0.703125 0.890625l6.671875 0zm3.1569824 5.609375l-1.1875305 0q2.7656555 -4.453125 2.7656555 -8.921875q0 -1.734375 -0.390625 -3.453125q-0.328125 -1.390625 -0.890625 -2.671875q-0.359375 -0.84375 -1.4844055 -2.78125l1.1875305 0q1.75 2.328125 2.578125 4.671875q0.71875 2.015625 0.71875 4.234375q0 2.5 -0.96875 4.84375q-0.953125 2.328125 -2.328125 4.078125zm9.645935 -15.109375l0.421875 -1.3125q1.484375 0.515625 2.140625 0.90625q-0.171875 -1.6875 -0.171875 -2.3125l1.34375 0q-0.03125 0.90625 -0.21875 2.296875q0.953125 -0.484375 2.1875 -0.890625l0.421875 1.3125q-1.171875 0.390625 -2.296875 0.53125q0.5625 0.484375 1.59375 1.75l-1.109375 0.78125q-0.546875 -0.734375 -1.28125 -1.984375q-0.6875 1.296875 -1.203125 1.984375l-1.09375 -0.78125q1.078125 -1.328125 1.53125 -1.75q-1.1875 -0.234375 -2.265625 -0.53125zm21.412354 9.5l0 1.609375l-8.984375 0q-0.015625 -0.609375 0.1875 -1.15625q0.34375 -0.921875 1.09375 -1.8125q0.765625 -0.890625 2.1875 -2.0625q2.21875 -1.8125 3.0 -2.875q0.78125 -1.0625 0.78125 -2.015625q0 -0.984375 -0.71875 -1.671875q-0.703125 -0.6875 -1.84375 -0.6875q-1.203125 0 -1.9375 0.734375q-0.71875 0.71875 -0.71875 2.0l-1.71875 -0.171875q0.171875 -1.921875 1.328125 -2.921875q1.15625 -1.015625 3.09375 -1.015625q1.953125 0 3.09375 1.09375q1.140625 1.078125 1.140625 2.6875q0 0.8125 -0.34375 1.609375q-0.328125 0.78125 -1.109375 1.65625q-0.765625 0.859375 -2.5625 2.390625q-1.5 1.265625 -1.9375 1.71875q-0.421875 0.4375 -0.703125 0.890625l6.671875 0z" fill-rule="nonzero"></path><path fill="#000000" d="m548.46796 479.91998l-1.046875 0l0 -6.71875q-0.390625 0.359375 -1.015625 0.734375q-0.609375 0.359375 -1.09375 0.53125l0 -1.015625q0.875 -0.421875 1.53125 -1.0q0.671875 -0.59375 0.953125 -1.15625l0.671875 0l0 8.625zm3.1044922 -1.984375l1.015625 -0.09375q0.125 0.71875 0.484375 1.046875q0.375 0.3125 0.9375 0.3125q0.484375 0 0.84375 -0.21875q0.375 -0.234375 0.609375 -0.59375q0.234375 -0.375 0.390625 -1.0q0.15625 -0.640625 0.15625 -1.296875q0 -0.078125 0 -0.21875q-0.3125 0.5 -0.859375 0.828125q-0.546875 0.3125 -1.1875 0.3125q-1.078125 0 -1.8125 -0.765625q-0.734375 -0.78125 -0.734375 -2.046875q0 -1.3125 0.765625 -2.109375q0.78125 -0.796875 1.9375 -0.796875q0.828125 0 1.515625 0.453125q0.703125 0.453125 1.0625 1.296875q0.359375 0.828125 0.359375 2.40625q0 1.640625 -0.359375 2.625q-0.34375 0.96875 -1.0625 1.484375q-0.703125 0.5 -1.640625 0.5q-1.015625 0 -1.65625 -0.546875q-0.640625 -0.5625 -0.765625 -1.578125zm4.3125 -3.796875q0 -0.90625 -0.484375 -1.4375q-0.46875 -0.53125 -1.15625 -0.53125q-0.703125 0 -1.234375 0.578125q-0.515625 0.5625 -0.515625 1.484375q0 0.8125 0.5 1.328125q0.5 0.515625 1.21875 0.515625q0.734375 0 1.203125 -0.515625q0.46875 -0.515625 0.46875 -1.421875z" fill-rule="nonzero"></path><path fill="#000000" fill-opacity="0.0" d="m590.9659 460.0l126.99213 0l0 58.015747l-126.99213 0z" fill-rule="nonzero"></path><path fill="#000000" d="m604.4034 490.91998q-1.375 -1.75 -2.328125 -4.078125q-0.953125 -2.34375 -0.953125 -4.84375q0 -2.21875 0.703125 -4.234375q0.84375 -2.34375 2.578125 -4.671875l1.203125 0q-1.125 1.921875 -1.484375 2.75q-0.5625 1.28125 -0.890625 2.671875q-0.40625 1.734375 -0.40625 3.484375q0 4.46875 2.78125 8.921875l-1.203125 0zm1.9157715 -4.0l3.59375 -5.125l-3.328125 -4.734375l2.09375 0l1.515625 2.3125q0.421875 0.65625 0.671875 1.109375q0.421875 -0.609375 0.765625 -1.09375l1.65625 -2.328125l1.984375 0l-3.390625 4.640625l3.65625 5.21875l-2.046875 0l-2.03125 -3.0625l-0.53125 -0.828125l-2.59375 3.890625l-2.015625 0zm13.953125 -2.203125l0 -3.71875l-3.703125 0l0 -1.5625l3.703125 0l0 -3.703125l1.578125 0l0 3.703125l3.6875 0l0 1.5625l-3.6875 0l0 3.71875l-1.578125 0zm6.9262085 -1.390625l1.671875 -0.21875q0.28125 1.421875 0.96875 2.046875q0.703125 0.625 1.6875 0.625q1.1875 0 2.0 -0.8125q0.8125 -0.828125 0.8125 -2.03125q0 -1.140625 -0.765625 -1.890625q-0.75 -0.75 -1.90625 -0.75q-0.46875 0 -1.171875 0.1875l0.1875 -1.46875q0.15625 0.015625 0.265625 0.015625q1.0625 0 1.90625 -0.546875q0.859375 -0.5625 0.859375 -1.71875q0 -0.921875 -0.625 -1.515625q-0.609375 -0.609375 -1.59375 -0.609375q-0.96875 0 -1.625 0.609375q-0.640625 0.609375 -0.828125 1.84375l-1.671875 -0.296875q0.296875 -1.6875 1.375 -2.609375q1.09375 -0.921875 2.71875 -0.921875q1.109375 0 2.046875 0.484375q0.9375 0.46875 1.421875 1.296875q0.5 0.828125 0.5 1.75q0 0.890625 -0.46875 1.609375q-0.46875 0.71875 -1.40625 1.15625q1.21875 0.265625 1.875 1.15625q0.671875 0.875 0.671875 2.1875q0 1.78125 -1.296875 3.015625q-1.296875 1.234375 -3.28125 1.234375q-1.796875 0 -2.984375 -1.0625q-1.171875 -1.0625 -1.34375 -2.765625zm11.922607 7.59375l-1.1875 0q2.765625 -4.453125 2.765625 -8.921875q0 -1.734375 -0.390625 -3.453125q-0.328125 -1.390625 -0.890625 -2.671875q-0.359375 -0.84375 -1.484375 -2.78125l1.1875 0q1.75 2.328125 2.578125 4.671875q0.71875 2.015625 0.71875 4.234375q0 2.5 -0.96875 4.84375q-0.953125 2.328125 -2.328125 4.078125zm9.645996 -15.109375l0.421875 -1.3125q1.484375 0.515625 2.140625 0.90625q-0.171875 -1.6875 -0.171875 -2.3125l1.34375 0q-0.03125 0.90625 -0.21875 2.296875q0.953125 -0.484375 2.1875 -0.890625l0.421875 1.3125q-1.171875 0.390625 -2.296875 0.53125q0.5625 0.484375 1.59375 1.75l-1.109375 0.78125q-0.546875 -0.734375 -1.28125 -1.984375q-0.6875 1.296875 -1.203125 1.984375l-1.09375 -0.78125q1.078125 -1.328125 1.53125 -1.75q-1.1875 -0.234375 -2.265625 -0.53125zm21.412292 9.5l0 1.609375l-8.984375 0q-0.015625 -0.609375 0.1875 -1.15625q0.34375 -0.921875 1.09375 -1.8125q0.765625 -0.890625 2.1875 -2.0625q2.21875 -1.8125 3.0 -2.875q0.78125 -1.0625 0.78125 -2.015625q0 -0.984375 -0.71875 -1.671875q-0.703125 -0.6875 -1.84375 -0.6875q-1.203125 0 -1.9375 0.734375q-0.71875 0.71875 -0.71875 2.0l-1.71875 -0.171875q0.171875 -1.921875 1.328125 -2.921875q1.15625 -1.015625 3.09375 -1.015625q1.953125 0 3.09375 1.09375q1.140625 1.078125 1.140625 2.6875q0 0.8125 -0.34375 1.609375q-0.328125 0.78125 -1.109375 1.65625q-0.765625 0.859375 -2.5625 2.390625q-1.5 1.265625 -1.9375 1.71875q-0.421875 0.4375 -0.703125 0.890625l6.671875 0z" fill-rule="nonzero"></path><path fill="#000000" d="m675.46136 479.91998l-1.046875 0l0 -6.71875q-0.390625 0.359375 -1.015625 0.734375q-0.609375 0.359375 -1.09375 0.53125l0 -1.015625q0.875 -0.421875 1.53125 -1.0q0.671875 -0.59375 0.953125 -1.15625l0.671875 0l0 8.625zm3.1045532 -1.984375l1.015625 -0.09375q0.125 0.71875 0.484375 1.046875q0.375 0.3125 0.9375 0.3125q0.484375 0 0.84375 -0.21875q0.375 -0.234375 0.609375 -0.59375q0.234375 -0.375 0.390625 -1.0q0.15625 -0.640625 0.15625 -1.296875q0 -0.078125 0 -0.21875q-0.3125 0.5 -0.859375 0.828125q-0.546875 0.3125 -1.1875 0.3125q-1.078125 0 -1.8125 -0.765625q-0.734375 -0.78125 -0.734375 -2.046875q0 -1.3125 0.765625 -2.109375q0.78125 -0.796875 1.9375 -0.796875q0.828125 0 1.515625 0.453125q0.703125 0.453125 1.0625 1.296875q0.359375 0.828125 0.359375 2.40625q0 1.640625 -0.359375 2.625q-0.34375 0.96875 -1.0625 1.484375q-0.703125 0.5 -1.640625 0.5q-1.015625 0 -1.65625 -0.546875q-0.640625 -0.5625 -0.765625 -1.578125zm4.3125 -3.796875q0 -0.90625 -0.484375 -1.4375q-0.46875 -0.53125 -1.15625 -0.53125q-0.703125 0 -1.234375 0.578125q-0.515625 0.5625 -0.515625 1.484375q0 0.8125 0.5 1.328125q0.5 0.515625 1.21875 0.515625q0.734375 0 1.203125 -0.515625q0.46875 -0.515625 0.46875 -1.421875z" fill-rule="nonzero"></path><path fill="#000000" fill-opacity="0.0" d="m705.958 460.0l126.99213 0l0 58.015747l-126.99213 0z" fill-rule="nonzero"></path><path fill="#000000" d="m719.3955 490.91998q-1.375 -1.75 -2.328125 -4.078125q-0.953125 -2.34375 -0.953125 -4.84375q0 -2.21875 0.703125 -4.234375q0.84375 -2.34375 2.578125 -4.671875l1.203125 0q-1.125 1.921875 -1.484375 2.75q-0.5625 1.28125 -0.890625 2.671875q-0.40625 1.734375 -0.40625 3.484375q0 4.46875 2.78125 8.921875l-1.203125 0zm1.9157715 -4.0l3.59375 -5.125l-3.328125 -4.734375l2.09375 0l1.515625 2.3125q0.421875 0.65625 0.671875 1.109375q0.421875 -0.609375 0.765625 -1.09375l1.65625 -2.328125l1.984375 0l-3.390625 4.640625l3.65625 5.21875l-2.046875 0l-2.03125 -3.0625l-0.53125 -0.828125l-2.59375 3.890625l-2.015625 0zm13.953125 -2.203125l0 -3.71875l-3.703125 0l0 -1.5625l3.703125 0l0 -3.703125l1.578125 0l0 3.703125l3.6875 0l0 1.5625l-3.6875 0l0 3.71875l-1.578125 0zm12.2699585 2.203125l0 -3.25l-5.90625 0l0 -1.53125l6.21875 -8.8125l1.359375 0l0 8.8125l1.84375 0l0 1.53125l-1.84375 0l0 3.25l-1.671875 0zm0 -4.78125l0 -6.140625l-4.25 6.140625l4.25 0zm6.5788574 8.78125l-1.1875 0q2.765625 -4.453125 2.765625 -8.921875q0 -1.734375 -0.390625 -3.453125q-0.328125 -1.390625 -0.890625 -2.671875q-0.359375 -0.84375 -1.484375 -2.78125l1.1875 0q1.75 2.328125 2.578125 4.671875q0.71875 2.015625 0.71875 4.234375q0 2.5 -0.96875 4.84375q-0.953125 2.328125 -2.328125 4.078125zm9.645996 -15.109375l0.421875 -1.3125q1.484375 0.515625 2.140625 0.90625q-0.171875 -1.6875 -0.171875 -2.3125l1.34375 0q-0.03125 0.90625 -0.21875 2.296875q0.953125 -0.484375 2.1875 -0.890625l0.421875 1.3125q-1.171875 0.390625 -2.296875 0.53125q0.5625 0.484375 1.59375 1.75l-1.109375 0.78125q-0.546875 -0.734375 -1.28125 -1.984375q-0.6875 1.296875 -1.203125 1.984375l-1.09375 -0.78125q1.078125 -1.328125 1.53125 -1.75q-1.1875 -0.234375 -2.265625 -0.53125zm21.412292 9.5l0 1.609375l-8.984375 0q-0.015625 -0.609375 0.1875 -1.15625q0.34375 -0.921875 1.09375 -1.8125q0.765625 -0.890625 2.1875 -2.0625q2.21875 -1.8125 3.0 -2.875q0.78125 -1.0625 0.78125 -2.015625q0 -0.984375 -0.71875 -1.671875q-0.703125 -0.6875 -1.84375 -0.6875q-1.203125 0 -1.9375 0.734375q-0.71875 0.71875 -0.71875 2.0l-1.71875 -0.171875q0.171875 -1.921875 1.328125 -2.921875q1.15625 -1.015625 3.09375 -1.015625q1.953125 0 3.09375 1.09375q1.140625 1.078125 1.140625 2.6875q0 0.8125 -0.34375 1.609375q-0.328125 0.78125 -1.109375 1.65625q-0.765625 0.859375 -2.5625 2.390625q-1.5 1.265625 -1.9375 1.71875q-0.421875 0.4375 -0.703125 0.890625l6.671875 0z" fill-rule="nonzero"></path><path fill="#000000" d="m790.4535 479.91998l-1.046875 0l0 -6.71875q-0.390625 0.359375 -1.015625 0.734375q-0.609375 0.359375 -1.09375 0.53125l0 -1.015625q0.875 -0.421875 1.53125 -1.0q0.671875 -0.59375 0.953125 -1.15625l0.671875 0l0 8.625zm3.1045532 -1.984375l1.015625 -0.09375q0.125 0.71875 0.484375 1.046875q0.375 0.3125 0.9375 0.3125q0.484375 0 0.84375 -0.21875q0.375 -0.234375 0.609375 -0.59375q0.234375 -0.375 0.390625 -1.0q0.15625 -0.640625 0.15625 -1.296875q0 -0.078125 0 -0.21875q-0.3125 0.5 -0.859375 0.828125q-0.546875 0.3125 -1.1875 0.3125q-1.078125 0 -1.8125 -0.765625q-0.734375 -0.78125 -0.734375 -2.046875q0 -1.3125 0.765625 -2.109375q0.78125 -0.796875 1.9375 -0.796875q0.828125 0 1.515625 0.453125q0.703125 0.453125 1.0625 1.296875q0.359375 0.828125 0.359375 2.40625q0 1.640625 -0.359375 2.625q-0.34375 0.96875 -1.0625 1.484375q-0.703125 0.5 -1.640625 0.5q-1.015625 0 -1.65625 -0.546875q-0.640625 -0.5625 -0.765625 -1.578125zm4.3125 -3.796875q0 -0.90625 -0.484375 -1.4375q-0.46875 -0.53125 -1.15625 -0.53125q-0.703125 0 -1.234375 0.578125q-0.515625 0.5625 -0.515625 1.484375q0 0.8125 0.5 1.328125q0.5 0.515625 1.21875 0.515625q0.734375 0 1.203125 -0.515625q0.46875 -0.515625 0.46875 -1.421875z" fill-rule="nonzero"></path><path fill="#000000" fill-opacity="0.0" d="m825.03937 460.0l126.99213 0l0 58.015747l-126.99213 0z" fill-rule="nonzero"></path><path fill="#000000" d="m838.47687 490.91998q-1.375 -1.75 -2.328125 -4.078125q-0.953125 -2.34375 -0.953125 -4.84375q0 -2.21875 0.703125 -4.234375q0.84375 -2.34375 2.578125 -4.671875l1.203125 0q-1.125 1.921875 -1.484375 2.75q-0.5625 1.28125 -0.890625 2.671875q-0.40625 1.734375 -0.40625 3.484375q0 4.46875 2.78125 8.921875l-1.203125 0zm1.9158325 -4.0l3.59375 -5.125l-3.328125 -4.734375l2.09375 0l1.515625 2.3125q0.421875 0.65625 0.671875 1.109375q0.421875 -0.609375 0.765625 -1.09375l1.65625 -2.328125l1.984375 0l-3.390625 4.640625l3.65625 5.21875l-2.046875 0l-2.03125 -3.0625l-0.53125 -0.828125l-2.59375 3.890625l-2.015625 0zm13.953125 -2.203125l0 -3.71875l-3.703125 0l0 -1.5625l3.703125 0l0 -3.703125l1.578125 0l0 3.703125l3.6875 0l0 1.5625l-3.6875 0l0 3.71875l-1.578125 0zm6.9105835 -1.359375l1.765625 -0.15625q0.1875 1.28125 0.890625 1.9375q0.71875 0.640625 1.71875 0.640625q1.203125 0 2.03125 -0.90625q0.84375 -0.90625 0.84375 -2.421875q0 -1.421875 -0.8125 -2.25q-0.796875 -0.828125 -2.09375 -0.828125q-0.796875 0 -1.453125 0.375q-0.640625 0.359375 -1.015625 0.953125l-1.578125 -0.203125l1.328125 -7.0l6.765625 0l0 1.609375l-5.4375 0l-0.734375 3.640625q1.234375 -0.84375 2.578125 -0.84375q1.78125 0 3.0 1.234375q1.234375 1.234375 1.234375 3.171875q0 1.84375 -1.078125 3.1875q-1.3125 1.65625 -3.578125 1.65625q-1.859375 0 -3.03125 -1.03125q-1.171875 -1.046875 -1.34375 -2.765625zm11.938171 7.5625l-1.1875 0q2.765625 -4.453125 2.765625 -8.921875q0 -1.734375 -0.390625 -3.453125q-0.328125 -1.390625 -0.890625 -2.671875q-0.359375 -0.84375 -1.484375 -2.78125l1.1875 0q1.75 2.328125 2.578125 4.671875q0.71875 2.015625 0.71875 4.234375q0 2.5 -0.96875 4.84375q-0.953125 2.328125 -2.328125 4.078125zm9.645996 -15.109375l0.421875 -1.3125q1.484375 0.515625 2.140625 0.90625q-0.171875 -1.6875 -0.171875 -2.3125l1.34375 0q-0.03125 0.90625 -0.21875 2.296875q0.953125 -0.484375 2.1875 -0.890625l0.421875 1.3125q-1.171875 0.390625 -2.296875 0.53125q0.5625 0.484375 1.59375 1.75l-1.109375 0.78125q-0.546875 -0.734375 -1.28125 -1.984375q-0.6875 1.296875 -1.203125 1.984375l-1.09375 -0.78125q1.078125 -1.328125 1.53125 -1.75q-1.1875 -0.234375 -2.265625 -0.53125zm21.412354 9.5l0 1.609375l-8.984375 0q-0.015625 -0.609375 0.1875 -1.15625q0.34375 -0.921875 1.09375 -1.8125q0.765625 -0.890625 2.1875 -2.0625q2.21875 -1.8125 3.0 -2.875q0.78125 -1.0625 0.78125 -2.015625q0 -0.984375 -0.71875 -1.671875q-0.703125 -0.6875 -1.84375 -0.6875q-1.203125 0 -1.9375 0.734375q-0.71875 0.71875 -0.71875 2.0l-1.71875 -0.171875q0.171875 -1.921875 1.328125 -2.921875q1.15625 -1.015625 3.09375 -1.015625q1.953125 0 3.09375 1.09375q1.140625 1.078125 1.140625 2.6875q0 0.8125 -0.34375 1.609375q-0.328125 0.78125 -1.109375 1.65625q-0.765625 0.859375 -2.5625 2.390625q-1.5 1.265625 -1.9375 1.71875q-0.421875 0.4375 -0.703125 0.890625l6.671875 0z" fill-rule="nonzero"></path><path fill="#000000" d="m909.53485 479.91998l-1.046875 0l0 -6.71875q-0.390625 0.359375 -1.015625 0.734375q-0.609375 0.359375 -1.09375 0.53125l0 -1.015625q0.875 -0.421875 1.53125 -1.0q0.671875 -0.59375 0.953125 -1.15625l0.671875 0l0 8.625zm3.1045532 -1.984375l1.015625 -0.09375q0.125 0.71875 0.484375 1.046875q0.375 0.3125 0.9375 0.3125q0.484375 0 0.84375 -0.21875q0.375 -0.234375 0.609375 -0.59375q0.234375 -0.375 0.390625 -1.0q0.15625 -0.640625 0.15625 -1.296875q0 -0.078125 0 -0.21875q-0.3125 0.5 -0.859375 0.828125q-0.546875 0.3125 -1.1875 0.3125q-1.078125 0 -1.8125 -0.765625q-0.734375 -0.78125 -0.734375 -2.046875q0 -1.3125 0.765625 -2.109375q0.78125 -0.796875 1.9375 -0.796875q0.828125 0 1.515625 0.453125q0.703125 0.453125 1.0625 1.296875q0.359375 0.828125 0.359375 2.40625q0 1.640625 -0.359375 2.625q-0.34375 0.96875 -1.0625 1.484375q-0.703125 0.5 -1.640625 0.5q-1.015625 0 -1.65625 -0.546875q-0.640625 -0.5625 -0.765625 -1.578125zm4.3125 -3.796875q0 -0.90625 -0.484375 -1.4375q-0.46875 -0.53125 -1.15625 -0.53125q-0.703125 0 -1.234375 0.578125q-0.515625 0.5625 -0.515625 1.484375q0 0.8125 0.5 1.328125q0.5 0.515625 1.21875 0.515625q0.734375 0 1.203125 -0.515625q0.46875 -0.515625 0.46875 -1.421875z" fill-rule="nonzero"></path><path fill="#f6b26b" d="m394.0 297.0l92.031494 0l0 48.0l-92.031494 0z" fill-rule="nonzero"></path><path fill="#000000" d="m404.26562 323.91998l0 -13.59375l1.671875 0l0 7.75l3.953125 -4.015625l2.15625 0l-3.765625 3.65625l4.140625 6.203125l-2.0625 0l-3.25 -5.03125l-1.171875 1.125l0 3.90625l-1.671875 0zm16.0625 -3.171875l1.71875 0.21875q-0.40625 1.5 -1.515625 2.34375q-1.09375 0.828125 -2.8125 0.828125q-2.15625 0 -3.421875 -1.328125q-1.265625 -1.328125 -1.265625 -3.734375q0 -2.484375 1.265625 -3.859375q1.28125 -1.375 3.328125 -1.375q1.984375 0 3.234375 1.34375q1.25 1.34375 1.25 3.796875q0 0.140625 -0.015625 0.4375l-7.34375 0q0.09375 1.625 0.921875 2.484375q0.828125 0.859375 2.0625 0.859375q0.90625 0 1.546875 -0.46875q0.65625 -0.484375 1.046875 -1.546875zm-5.484375 -2.703125l5.5 0q-0.109375 -1.234375 -0.625 -1.859375q-0.796875 -0.96875 -2.078125 -0.96875q-1.140625 0 -1.9375 0.78125q-0.78125 0.765625 -0.859375 2.046875zm9.031982 9.671875l-0.171875 -1.5625q0.546875 0.140625 0.953125 0.140625q0.546875 0 0.875 -0.1875q0.34375 -0.1875 0.5625 -0.515625q0.15625 -0.25 0.5 -1.25q0.046875 -0.140625 0.15625 -0.40625l-3.734375 -9.875l1.796875 0l2.046875 5.71875q0.40625 1.078125 0.71875 2.28125q0.28125 -1.15625 0.6875 -2.25l2.09375 -5.75l1.671875 0l-3.75 10.03125q-0.59375 1.625 -0.9375 2.234375q-0.4375 0.828125 -1.015625 1.203125q-0.578125 0.390625 -1.375 0.390625q-0.484375 0 -1.078125 -0.203125zm18.1875 -11.796875l-8.96875 0l0 -1.5625l8.96875 0l0 1.5625zm0 4.125l-8.96875 0l0 -1.546875l8.96875 0l0 1.546875zm7.9418335 3.875l-1.671875 0l0 -10.640625q-0.59375 0.578125 -1.578125 1.15625q-0.984375 0.5625 -1.765625 0.859375l0 -1.625q1.40625 -0.65625 2.453125 -1.59375q1.046875 -0.9375 1.484375 -1.8125l1.078125 0l0 13.65625z" fill-rule="nonzero"></path><path fill="#cc4125" d="m486.01575 297.0l29.984253 0l0 48.0l-29.984253 0z" fill-rule="nonzero"></path><path fill="#000000" d="m504.57825 322.3106l0 1.609375l-8.984375 0q-0.015625 -0.609375 0.1875 -1.15625q0.34375 -0.921875 1.09375 -1.8125q0.765625 -0.890625 2.1875 -2.0625q2.21875 -1.8125 3.0 -2.875q0.78125 -1.0625 0.78125 -2.015625q0 -0.984375 -0.71875 -1.671875q-0.703125 -0.6875 -1.84375 -0.6875q-1.203125 0 -1.9375 0.734375q-0.71875 0.71875 -0.71875 2.0l-1.71875 -0.171875q0.171875 -1.921875 1.328125 -2.921875q1.15625 -1.015625 3.09375 -1.015625q1.953125 0 3.09375 1.09375q1.140625 1.078125 1.140625 2.6875q0 0.8125 -0.34375 1.609375q-0.328125 0.78125 -1.109375 1.65625q-0.765625 0.859375 -2.5625 2.390625q-1.5 1.265625 -1.9375 1.71875q-0.421875 0.4375 -0.703125 0.890625l6.671875 0z" fill-rule="nonzero"></path><path fill="#3d85c6" d="m728.0315 297.0l68.0 0l0 48.0l-68.0 0z" fill-rule="nonzero"></path><path fill="#000000" d="m743.1721 323.91998l0 -3.25l-5.90625 0l0 -1.53125l6.21875 -8.8125l1.359375 0l0 8.8125l1.84375 0l0 1.53125l-1.84375 0l0 3.25l-1.671875 0zm0 -4.78125l0 -6.140625l-4.25 6.140625l4.25 0z" fill-rule="nonzero"></path><path fill="#cc4125" d="m553.53284 297.0l54.236206 0l0 48.0l-54.236206 0z" fill-rule="nonzero"></path><path fill="#000000" d="m572.09534 322.3106l0 1.609375l-8.984375 0q-0.015625 -0.609375 0.1875 -1.15625q0.34375 -0.921875 1.09375 -1.8125q0.765625 -0.890625 2.1875 -2.0625q2.21875 -1.8125 3.0 -2.875q0.78125 -1.0625 0.78125 -2.015625q0 -0.984375 -0.71875 -1.671875q-0.703125 -0.6875 -1.84375 -0.6875q-1.203125 0 -1.9375 0.734375q-0.71875 0.71875 -0.71875 2.0l-1.71875 -0.171875q0.171875 -1.921875 1.328125 -2.921875q1.15625 -1.015625 3.09375 -1.015625q1.953125 0 3.09375 1.09375q1.140625 1.078125 1.140625 2.6875q0 0.8125 -0.34375 1.609375q-0.328125 0.78125 -1.109375 1.65625q-0.765625 0.859375 -2.5625 2.390625q-1.5 1.265625 -1.9375 1.71875q-0.421875 0.4375 -0.703125 0.890625l6.671875 0z" fill-rule="nonzero"></path><path fill="#000000" fill-opacity="0.0" d="m395.0 209.01575l121.00787 0l0 136.0l-121.00787 0z" fill-rule="nonzero"></path><path stroke="#000000" stroke-width="1.0" stroke-linejoin="round" stroke-linecap="butt" d="m395.0 209.01575l121.00787 0l0 136.0l-121.00787 0z" fill-rule="nonzero"></path><path fill="#000000" d="m404.85938 231.56075l1.6875 -0.140625q0.125 1.015625 0.5625 1.671875q0.4375 0.65625 1.359375 1.0625q0.9375 0.40625 2.09375 0.40625q1.03125 0 1.8125 -0.3125q0.796875 -0.3125 1.1875 -0.84375q0.390625 -0.53125 0.390625 -1.15625q0 -0.640625 -0.375 -1.109375q-0.375 -0.484375 -1.234375 -0.8125q-0.546875 -0.21875 -2.421875 -0.65625q-1.875 -0.453125 -2.625 -0.859375q-0.96875 -0.515625 -1.453125 -1.265625q-0.46875 -0.75 -0.46875 -1.6875q0 -1.03125 0.578125 -1.921875q0.59375 -0.90625 1.703125 -1.359375q1.125 -0.46875 2.5 -0.46875q1.515625 0 2.671875 0.484375q1.15625 0.484375 1.765625 1.4375q0.625 0.9375 0.671875 2.140625l-1.71875 0.125q-0.140625 -1.28125 -0.953125 -1.9375q-0.796875 -0.671875 -2.359375 -0.671875q-1.625 0 -2.375 0.609375q-0.75 0.59375 -0.75 1.4375q0 0.734375 0.53125 1.203125q0.515625 0.46875 2.703125 0.96875q2.203125 0.5 3.015625 0.875q1.1875 0.546875 1.75 1.390625q0.578125 0.828125 0.578125 1.921875q0 1.09375 -0.625 2.0625q-0.625 0.953125 -1.796875 1.484375q-1.15625 0.53125 -2.609375 0.53125q-1.84375 0 -3.09375 -0.53125q-1.25 -0.546875 -1.96875 -1.625q-0.703125 -1.078125 -0.734375 -2.453125zm12.849823 -7.3125l0 -1.90625l1.671875 0l0 1.90625l-1.671875 0zm0 11.6875l0 -9.859375l1.671875 0l0 9.859375l-1.671875 0zm3.254181 0l0 -1.359375l6.265625 -7.1875q-1.0625 0.046875 -1.875 0.046875l-4.015625 0l0 -1.359375l8.046875 0l0 1.109375l-5.34375 6.25l-1.015625 1.140625q1.109375 -0.078125 2.09375 -0.078125l4.5625 0l0 1.4375l-8.71875 0zm16.953125 -3.171875l1.71875 0.21875q-0.40625 1.5 -1.515625 2.34375q-1.09375 0.828125 -2.8125 0.828125q-2.15625 0 -3.421875 -1.328125q-1.265625 -1.328125 -1.265625 -3.734375q0 -2.484375 1.265625 -3.859375q1.28125 -1.375 3.328125 -1.375q1.984375 0 3.234375 1.34375q1.25 1.34375 1.25 3.796875q0 0.140625 -0.015625 0.4375l-7.34375 0q0.09375 1.625 0.921875 2.484375q0.828125 0.859375 2.0625 0.859375q0.90625 0 1.546875 -0.46875q0.65625 -0.484375 1.046875 -1.546875zm-5.484375 -2.703125l5.5 0q-0.109375 -1.234375 -0.625 -1.859375q-0.796875 -0.96875 -2.078125 -0.96875q-1.140625 0 -1.9375 0.78125q-0.78125 0.765625 -0.859375 2.046875zm9.578857 -2.078125l0 -1.90625l1.90625 0l0 1.90625l-1.90625 0zm0 7.953125l0 -1.90625l1.90625 0l0 1.90625l-1.90625 0zm15.725983 0l-1.671875 0l0 -10.640625q-0.59375 0.578125 -1.578125 1.15625q-0.984375 0.5625 -1.765625 0.859375l0 -1.625q1.40625 -0.65625 2.453125 -1.59375q1.046875 -0.9375 1.484375 -1.8125l1.078125 0l0 13.65625zm9.074646 -11.109375l0.421875 -1.3125q1.484375 0.515625 2.140625 0.90625q-0.171875 -1.6875 -0.171875 -2.3125l1.34375 0q-0.03125 0.90625 -0.21875 2.296875q0.953125 -0.484375 2.1875 -0.890625l0.421875 1.3125q-1.171875 0.390625 -2.296875 0.53125q0.5625 0.484375 1.59375 1.75l-1.109375 0.78125q-0.546875 -0.734375 -1.28125 -1.984375q-0.6875 1.296875 -1.203125 1.984375l-1.09375 -0.78125q1.078125 -1.328125 1.53125 -1.75q-1.1875 -0.234375 -2.265625 -0.53125zm21.412323 9.5l0 1.609375l-8.984375 0q-0.015625 -0.609375 0.1875 -1.15625q0.34375 -0.921875 1.09375 -1.8125q0.765625 -0.890625 2.1875 -2.0625q2.21875 -1.8125 3.0 -2.875q0.78125 -1.0625 0.78125 -2.015625q0 -0.984375 -0.71875 -1.671875q-0.703125 -0.6875 -1.84375 -0.6875q-1.203125 0 -1.9375 0.734375q-0.71875 0.71875 -0.71875 2.0l-1.71875 -0.171875q0.171875 -1.921875 1.328125 -2.921875q1.15625 -1.015625 3.09375 -1.015625q1.953125 0 3.09375 1.09375q1.140625 1.078125 1.140625 2.6875q0 0.8125 -0.34375 1.609375q-0.328125 0.78125 -1.109375 1.65625q-0.765625 0.859375 -2.5625 2.390625q-1.5 1.265625 -1.9375 1.71875q-0.421875 0.4375 -0.703125 0.890625l6.671875 0z" fill-rule="nonzero"></path><path fill="#000000" d="m493.50592 228.93575l-1.046875 0l0 -6.71875q-0.390625 0.359375 -1.015625 0.734375q-0.609375 0.359375 -1.09375 0.53125l0 -1.015625q0.875 -0.421875 1.53125 -1.0q0.671875 -0.59375 0.953125 -1.15625l0.671875 0l0 8.625zm3.1045227 -1.984375l1.015625 -0.09375q0.125 0.71875 0.484375 1.046875q0.375 0.3125 0.9375 0.3125q0.484375 0 0.84375 -0.21875q0.375 -0.234375 0.609375 -0.59375q0.234375 -0.375 0.390625 -1.0q0.15625 -0.640625 0.15625 -1.296875q0 -0.078125 0 -0.21875q-0.3125 0.5 -0.859375 0.828125q-0.546875 0.3125 -1.1875 0.3125q-1.078125 0 -1.8125 -0.765625q-0.734375 -0.78125 -0.734375 -2.046875q0 -1.3125 0.765625 -2.109375q0.78125 -0.796875 1.9375 -0.796875q0.828125 0 1.515625 0.453125q0.703125 0.453125 1.0625 1.296875q0.359375 0.828125 0.359375 2.40625q0 1.640625 -0.359375 2.625q-0.34375 0.96875 -1.0625 1.484375q-0.703125 0.5 -1.640625 0.5q-1.015625 0 -1.65625 -0.546875q-0.640625 -0.5625 -0.765625 -1.578125zm4.3125 -3.796875q0 -0.90625 -0.484375 -1.4375q-0.46875 -0.53125 -1.15625 -0.53125q-0.703125 0 -1.234375 0.578125q-0.515625 0.5625 -0.515625 1.484375q0 0.8125 0.5 1.328125q0.5 0.515625 1.21875 0.515625q0.734375 0 1.203125 -0.515625q0.46875 -0.515625 0.46875 -1.421875z" fill-rule="nonzero"></path><path fill="#000000" d="m405.51562 279.93576l0 -13.59375l1.8125 0l0 5.578125l7.0625 0l0 -5.578125l1.796875 0l0 13.59375l-1.796875 0l0 -6.40625l-7.0625 0l0 6.40625l-1.8125 0zm19.644836 -1.21875q-0.9375 0.796875 -1.796875 1.125q-0.859375 0.3125 -1.84375 0.3125q-1.609375 0 -2.484375 -0.78125q-0.875 -0.796875 -0.875 -2.03125q0 -0.734375 0.328125 -1.328125q0.328125 -0.59375 0.859375 -0.953125q0.53125 -0.359375 1.203125 -0.546875q0.5 -0.140625 1.484375 -0.25q2.03125 -0.25 2.984375 -0.578125q0 -0.34375 0 -0.4375q0 -1.015625 -0.46875 -1.4375q-0.640625 -0.5625 -1.90625 -0.5625q-1.171875 0 -1.734375 0.40625q-0.5625 0.40625 -0.828125 1.46875l-1.640625 -0.234375q0.234375 -1.046875 0.734375 -1.6875q0.515625 -0.640625 1.46875 -0.984375q0.96875 -0.359375 2.25 -0.359375q1.265625 0 2.046875 0.296875q0.78125 0.296875 1.15625 0.75q0.375 0.453125 0.515625 1.140625q0.09375 0.421875 0.09375 1.53125l0 2.234375q0 2.328125 0.09375 2.953125q0.109375 0.609375 0.4375 1.171875l-1.75 0q-0.265625 -0.515625 -0.328125 -1.21875zm-0.140625 -3.71875q-0.90625 0.359375 -2.734375 0.625q-1.03125 0.140625 -1.453125 0.328125q-0.421875 0.1875 -0.65625 0.546875q-0.234375 0.359375 -0.234375 0.796875q0 0.671875 0.5 1.125q0.515625 0.4375 1.484375 0.4375q0.96875 0 1.71875 -0.421875q0.75 -0.4375 1.109375 -1.15625q0.265625 -0.578125 0.265625 -1.671875l0 -0.609375zm3.406952 2.0l1.65625 -0.265625q0.140625 1.0 0.765625 1.53125q0.640625 0.515625 1.78125 0.515625q1.15625 0 1.703125 -0.46875q0.5625 -0.46875 0.5625 -1.09375q0 -0.5625 -0.484375 -0.890625q-0.34375 -0.21875 -1.703125 -0.5625q-1.84375 -0.46875 -2.5625 -0.796875q-0.703125 -0.34375 -1.078125 -0.9375q-0.359375 -0.609375 -0.359375 -1.328125q0 -0.65625 0.296875 -1.21875q0.3125 -0.5625 0.828125 -0.9375q0.390625 -0.28125 1.0625 -0.484375q0.671875 -0.203125 1.4375 -0.203125q1.171875 0 2.046875 0.34375q0.875 0.328125 1.28125 0.90625q0.421875 0.5625 0.578125 1.515625l-1.625 0.21875q-0.109375 -0.75 -0.65625 -1.171875q-0.53125 -0.4375 -1.5 -0.4375q-1.15625 0 -1.640625 0.390625q-0.484375 0.375 -0.484375 0.875q0 0.328125 0.203125 0.59375q0.203125 0.265625 0.640625 0.4375q0.25 0.09375 1.46875 0.4375q1.765625 0.46875 2.46875 0.765625q0.703125 0.296875 1.09375 0.875q0.40625 0.578125 0.40625 1.4375q0 0.828125 -0.484375 1.578125q-0.484375 0.734375 -1.40625 1.140625q-0.921875 0.390625 -2.078125 0.390625q-1.921875 0 -2.9375 -0.796875q-1.0 -0.796875 -1.28125 -2.359375zm10.0 2.9375l0 -13.59375l1.671875 0l0 4.875q1.171875 -1.359375 2.953125 -1.359375q1.09375 0 1.890625 0.4375q0.8125 0.421875 1.15625 1.1875q0.359375 0.765625 0.359375 2.203125l0 6.25l-1.671875 0l0 -6.25q0 -1.25 -0.546875 -1.8125q-0.546875 -0.578125 -1.53125 -0.578125q-0.75 0 -1.40625 0.390625q-0.640625 0.375 -0.921875 1.046875q-0.28125 0.65625 -0.28125 1.8125l0 5.390625l-1.671875 0zm15.574646 0l0 -13.59375l1.671875 0l0 7.75l3.953125 -4.015625l2.15625 0l-3.765625 3.65625l4.140625 6.203125l-2.0625 0l-3.25 -5.03125l-1.171875 1.125l0 3.90625l-1.671875 0zm16.0625 -3.171875l1.71875 0.21875q-0.40625 1.5 -1.515625 2.34375q-1.09375 0.828125 -2.8125 0.828125q-2.15625 0 -3.421875 -1.328125q-1.265625 -1.328125 -1.265625 -3.734375q0 -2.484375 1.265625 -3.859375q1.28125 -1.375 3.328125 -1.375q1.984375 0 3.234375 1.34375q1.25 1.34375 1.25 3.796875q0 0.140625 -0.015625 0.4375l-7.34375 0q0.09375 1.625 0.921875 2.484375q0.828125 0.859375 2.0625 0.859375q0.90625 0 1.546875 -0.46875q0.65625 -0.484375 1.046875 -1.546875zm-5.484375 -2.703125l5.5 0q-0.109375 -1.234375 -0.625 -1.859375q-0.796875 -0.96875 -2.078125 -0.96875q-1.140625 0 -1.9375 0.78125q-0.78125 0.765625 -0.859375 2.046875zm9.031952 9.671875l-0.171875 -1.5625q0.546875 0.140625 0.953125 0.140625q0.546875 0 0.875 -0.1875q0.34375 -0.1875 0.5625 -0.515625q0.15625 -0.25 0.5 -1.25q0.046875 -0.140625 0.15625 -0.40625l-3.734375 -9.875l1.796875 0l2.046875 5.71875q0.40625 1.078125 0.71875 2.28125q0.28125 -1.15625 0.6875 -2.25l2.09375 -5.75l1.671875 0l-3.75 10.03125q-0.59375 1.625 -0.9375 2.234375q-0.4375 0.828125 -1.015625 1.203125q-0.578125 0.390625 -1.375 0.390625q-0.484375 0 -1.078125 -0.203125zm8.734375 -6.734375l1.65625 -0.265625q0.140625 1.0 0.765625 1.53125q0.640625 0.515625 1.78125 0.515625q1.15625 0 1.703125 -0.46875q0.5625 -0.46875 0.5625 -1.09375q0 -0.5625 -0.484375 -0.890625q-0.34375 -0.21875 -1.703125 -0.5625q-1.84375 -0.46875 -2.5625 -0.796875q-0.703125 -0.34375 -1.078125 -0.9375q-0.359375 -0.609375 -0.359375 -1.328125q0 -0.65625 0.296875 -1.21875q0.3125 -0.5625 0.828125 -0.9375q0.390625 -0.28125 1.0625 -0.484375q0.671875 -0.203125 1.4375 -0.203125q1.171875 0 2.046875 0.34375q0.875 0.328125 1.28125 0.90625q0.421875 0.5625 0.578125 1.515625l-1.625 0.21875q-0.109375 -0.75 -0.65625 -1.171875q-0.53125 -0.4375 -1.5 -0.4375q-1.15625 0 -1.640625 0.390625q-0.484375 0.375 -0.484375 0.875q0 0.328125 0.203125 0.59375q0.203125 0.265625 0.640625 0.4375q0.25 0.09375 1.46875 0.4375q1.765625 0.46875 2.46875 0.765625q0.703125 0.296875 1.09375 0.875q0.40625 0.578125 0.40625 1.4375q0 0.828125 -0.484375 1.578125q-0.484375 0.734375 -1.40625 1.140625q-0.921875 0.390625 -2.078125 0.390625q-1.921875 0 -2.9375 -0.796875q-1.0 -0.796875 -1.28125 -2.359375zm10.46875 -5.015625l0 -1.90625l1.90625 0l0 1.90625l-1.90625 0zm0 7.953125l0 -1.90625l1.90625 0l0 1.90625l-1.90625 0z" fill-rule="nonzero"></path><path fill="#000000" fill-opacity="0.0" d="m554.01575 209.0l242.01575 0l0 136.0l-242.01575 0z" fill-rule="nonzero"></path><path stroke="#000000" stroke-width="1.0" stroke-linejoin="round" stroke-linecap="butt" d="m554.01575 209.0l242.01575 0l0 136.0l-242.01575 0z" fill-rule="nonzero"></path><path fill="#000000" d="m563.8751 231.545l1.6875 -0.140625q0.125 1.015625 0.5625 1.671875q0.4375 0.65625 1.359375 1.0625q0.9375 0.40625 2.09375 0.40625q1.03125 0 1.8125 -0.3125q0.796875 -0.3125 1.1875 -0.84375q0.390625 -0.53125 0.390625 -1.15625q0 -0.640625 -0.375 -1.109375q-0.375 -0.484375 -1.234375 -0.8125q-0.546875 -0.21875 -2.421875 -0.65625q-1.875 -0.453125 -2.625 -0.859375q-0.96875 -0.515625 -1.453125 -1.265625q-0.46875 -0.75 -0.46875 -1.6875q0 -1.03125 0.578125 -1.921875q0.59375 -0.90625 1.703125 -1.359375q1.125 -0.46875 2.5 -0.46875q1.515625 0 2.671875 0.484375q1.15625 0.484375 1.765625 1.4375q0.625 0.9375 0.671875 2.140625l-1.71875 0.125q-0.140625 -1.28125 -0.953125 -1.9375q-0.796875 -0.671875 -2.359375 -0.671875q-1.625 0 -2.375 0.609375q-0.75 0.59375 -0.75 1.4375q0 0.734375 0.53125 1.203125q0.515625 0.46875 2.703125 0.96875q2.203125 0.5 3.015625 0.875q1.1875 0.546875 1.75 1.390625q0.578125 0.828125 0.578125 1.921875q0 1.09375 -0.625 2.0625q-0.625 0.953125 -1.796875 1.484375q-1.15625 0.53125 -2.609375 0.53125q-1.84375 0 -3.09375 -0.53125q-1.25 -0.546875 -1.96875 -1.625q-0.703125 -1.078125 -0.734375 -2.453125zm12.8498535 -7.3125l0 -1.90625l1.671875 0l0 1.90625l-1.671875 0zm0 11.6875l0 -9.859375l1.671875 0l0 9.859375l-1.671875 0zm3.2541504 0l0 -1.359375l6.265625 -7.1875q-1.0625 0.046875 -1.875 0.046875l-4.015625 0l0 -1.359375l8.046875 0l0 1.109375l-5.34375 6.25l-1.015625 1.140625q1.109375 -0.078125 2.09375 -0.078125l4.5625 0l0 1.4375l-8.71875 0zm16.953125 -3.171875l1.71875 0.21875q-0.40625 1.5 -1.515625 2.34375q-1.09375 0.828125 -2.8125 0.828125q-2.15625 0 -3.421875 -1.328125q-1.265625 -1.328125 -1.265625 -3.734375q0 -2.484375 1.265625 -3.859375q1.28125 -1.375 3.328125 -1.375q1.984375 0 3.234375 1.34375q1.25 1.34375 1.25 3.796875q0 0.140625 -0.015625 0.4375l-7.34375 0q0.09375 1.625 0.921875 2.484375q0.828125 0.859375 2.0625 0.859375q0.90625 0 1.546875 -0.46875q0.65625 -0.484375 1.046875 -1.546875zm-5.484375 -2.703125l5.5 0q-0.109375 -1.234375 -0.625 -1.859375q-0.796875 -0.96875 -2.078125 -0.96875q-1.140625 0 -1.9375 0.78125q-0.78125 0.765625 -0.859375 2.046875zm9.578857 -2.078125l0 -1.90625l1.90625 0l0 1.90625l-1.90625 0zm0 7.953125l0 -1.90625l1.90625 0l0 1.90625l-1.90625 0zm18.210388 -1.609375l0 1.609375l-8.984375 0q-0.015625 -0.609375 0.1875 -1.15625q0.34375 -0.921875 1.09375 -1.8125q0.765625 -0.890625 2.1875 -2.0625q2.21875 -1.8125 3.0 -2.875q0.78125 -1.0625 0.78125 -2.015625q0 -0.984375 -0.71875 -1.671875q-0.703125 -0.6875 -1.84375 -0.6875q-1.203125 0 -1.9375 0.734375q-0.71875 0.71875 -0.71875 2.0l-1.71875 -0.171875q0.171875 -1.921875 1.328125 -2.921875q1.15625 -1.015625 3.09375 -1.015625q1.953125 0 3.09375 1.09375q1.140625 1.078125 1.140625 2.6875q0 0.8125 -0.34375 1.609375q-0.328125 0.78125 -1.109375 1.65625q-0.765625 0.859375 -2.5625 2.390625q-1.5 1.265625 -1.9375 1.71875q-0.421875 0.4375 -0.703125 0.890625l6.671875 0zm6.590271 -9.5l0.421875 -1.3125q1.484375 0.515625 2.140625 0.90625q-0.171875 -1.6875 -0.171875 -2.3125l1.34375 0q-0.03125 0.90625 -0.21875 2.296875q0.953125 -0.484375 2.1875 -0.890625l0.421875 1.3125q-1.171875 0.390625 -2.296875 0.53125q0.5625 0.484375 1.59375 1.75l-1.109375 0.78125q-0.546875 -0.734375 -1.28125 -1.984375q-0.6875 1.296875 -1.203125 1.984375l-1.09375 -0.78125q1.078125 -1.328125 1.53125 -1.75q-1.1875 -0.234375 -2.265625 -0.53125zm21.412292 9.5l0 1.609375l-8.984375 0q-0.015625 -0.609375 0.1875 -1.15625q0.34375 -0.921875 1.09375 -1.8125q0.765625 -0.890625 2.1875 -2.0625q2.21875 -1.8125 3.0 -2.875q0.78125 -1.0625 0.78125 -2.015625q0 -0.984375 -0.71875 -1.671875q-0.703125 -0.6875 -1.84375 -0.6875q-1.203125 0 -1.9375 0.734375q-0.71875 0.71875 -0.71875 2.0l-1.71875 -0.171875q0.171875 -1.921875 1.328125 -2.921875q1.15625 -1.015625 3.09375 -1.015625q1.953125 0 3.09375 1.09375q1.140625 1.078125 1.140625 2.6875q0 0.8125 -0.34375 1.609375q-0.328125 0.78125 -1.109375 1.65625q-0.765625 0.859375 -2.5625 2.390625q-1.5 1.265625 -1.9375 1.71875q-0.421875 0.4375 -0.703125 0.890625l6.671875 0z" fill-rule="nonzero"></path><path fill="#000000" d="m652.52167 228.92l-1.046875 0l0 -6.71875q-0.390625 0.359375 -1.015625 0.734375q-0.609375 0.359375 -1.09375 0.53125l0 -1.015625q0.875 -0.421875 1.53125 -1.0q0.671875 -0.59375 0.953125 -1.15625l0.671875 0l0 8.625zm3.1045532 -1.984375l1.015625 -0.09375q0.125 0.71875 0.484375 1.046875q0.375 0.3125 0.9375 0.3125q0.484375 0 0.84375 -0.21875q0.375 -0.234375 0.609375 -0.59375q0.234375 -0.375 0.390625 -1.0q0.15625 -0.640625 0.15625 -1.296875q0 -0.078125 0 -0.21875q-0.3125 0.5 -0.859375 0.828125q-0.546875 0.3125 -1.1875 0.3125q-1.078125 0 -1.8125 -0.765625q-0.734375 -0.78125 -0.734375 -2.046875q0 -1.3125 0.765625 -2.109375q0.78125 -0.796875 1.9375 -0.796875q0.828125 0 1.515625 0.453125q0.703125 0.453125 1.0625 1.296875q0.359375 0.828125 0.359375 2.40625q0 1.640625 -0.359375 2.625q-0.34375 0.96875 -1.0625 1.484375q-0.703125 0.5 -1.640625 0.5q-1.015625 0 -1.65625 -0.546875q-0.640625 -0.5625 -0.765625 -1.578125zm4.3125 -3.796875q0 -0.90625 -0.484375 -1.4375q-0.46875 -0.53125 -1.15625 -0.53125q-0.703125 0 -1.234375 0.578125q-0.515625 0.5625 -0.515625 1.484375q0 0.8125 0.5 1.328125q0.5 0.515625 1.21875 0.515625q0.734375 0 1.203125 -0.515625q0.46875 -0.515625 0.46875 -1.421875z" fill-rule="nonzero"></path><path fill="#000000" d="m564.5314 279.91998l0 -13.59375l1.8125 0l0 5.578125l7.0625 0l0 -5.578125l1.796875 0l0 13.59375l-1.796875 0l0 -6.40625l-7.0625 0l0 6.40625l-1.8125 0zm19.644836 -1.21875q-0.9375 0.796875 -1.796875 1.125q-0.859375 0.3125 -1.84375 0.3125q-1.609375 0 -2.484375 -0.78125q-0.875 -0.796875 -0.875 -2.03125q0 -0.734375 0.328125 -1.328125q0.328125 -0.59375 0.859375 -0.953125q0.53125 -0.359375 1.203125 -0.546875q0.5 -0.140625 1.484375 -0.25q2.03125 -0.25 2.984375 -0.578125q0 -0.34375 0 -0.4375q0 -1.015625 -0.46875 -1.4375q-0.640625 -0.5625 -1.90625 -0.5625q-1.171875 0 -1.734375 0.40625q-0.5625 0.40625 -0.828125 1.46875l-1.640625 -0.234375q0.234375 -1.046875 0.734375 -1.6875q0.515625 -0.640625 1.46875 -0.984375q0.96875 -0.359375 2.25 -0.359375q1.265625 0 2.046875 0.296875q0.78125 0.296875 1.15625 0.75q0.375 0.453125 0.515625 1.140625q0.09375 0.421875 0.09375 1.53125l0 2.234375q0 2.328125 0.09375 2.953125q0.109375 0.609375 0.4375 1.171875l-1.75 0q-0.265625 -0.515625 -0.328125 -1.21875zm-0.140625 -3.71875q-0.90625 0.359375 -2.734375 0.625q-1.03125 0.140625 -1.453125 0.328125q-0.421875 0.1875 -0.65625 0.546875q-0.234375 0.359375 -0.234375 0.796875q0 0.671875 0.5 1.125q0.515625 0.4375 1.484375 0.4375q0.96875 0 1.71875 -0.421875q0.75 -0.4375 1.109375 -1.15625q0.265625 -0.578125 0.265625 -1.671875l0 -0.609375zm3.4069824 2.0l1.65625 -0.265625q0.140625 1.0 0.765625 1.53125q0.640625 0.515625 1.78125 0.515625q1.15625 0 1.703125 -0.46875q0.5625 -0.46875 0.5625 -1.09375q0 -0.5625 -0.484375 -0.890625q-0.34375 -0.21875 -1.703125 -0.5625q-1.84375 -0.46875 -2.5625 -0.796875q-0.703125 -0.34375 -1.078125 -0.9375q-0.359375 -0.609375 -0.359375 -1.328125q0 -0.65625 0.296875 -1.21875q0.3125 -0.5625 0.828125 -0.9375q0.390625 -0.28125 1.0625 -0.484375q0.671875 -0.203125 1.4375 -0.203125q1.171875 0 2.046875 0.34375q0.875 0.328125 1.28125 0.90625q0.421875 0.5625 0.578125 1.515625l-1.625 0.21875q-0.109375 -0.75 -0.65625 -1.171875q-0.53125 -0.4375 -1.5 -0.4375q-1.15625 0 -1.640625 0.390625q-0.484375 0.375 -0.484375 0.875q0 0.328125 0.203125 0.59375q0.203125 0.265625 0.640625 0.4375q0.25 0.09375 1.46875 0.4375q1.765625 0.46875 2.46875 0.765625q0.703125 0.296875 1.09375 0.875q0.40625 0.578125 0.40625 1.4375q0 0.828125 -0.484375 1.578125q-0.484375 0.734375 -1.40625 1.140625q-0.921875 0.390625 -2.078125 0.390625q-1.921875 0 -2.9375 -0.796875q-1.0 -0.796875 -1.28125 -2.359375zm10.0 2.9375l0 -13.59375l1.671875 0l0 4.875q1.171875 -1.359375 2.953125 -1.359375q1.09375 0 1.890625 0.4375q0.8125 0.421875 1.15625 1.1875q0.359375 0.765625 0.359375 2.203125l0 6.25l-1.671875 0l0 -6.25q0 -1.25 -0.546875 -1.8125q-0.546875 -0.578125 -1.53125 -0.578125q-0.75 0 -1.40625 0.390625q-0.640625 0.375 -0.921875 1.046875q-0.28125 0.65625 -0.28125 1.8125l0 5.390625l-1.671875 0zm15.574646 0l0 -13.59375l1.671875 0l0 7.75l3.953125 -4.015625l2.15625 0l-3.765625 3.65625l4.140625 6.203125l-2.0625 0l-3.25 -5.03125l-1.171875 1.125l0 3.90625l-1.671875 0zm16.0625 -3.171875l1.71875 0.21875q-0.40625 1.5 -1.515625 2.34375q-1.09375 0.828125 -2.8125 0.828125q-2.15625 0 -3.421875 -1.328125q-1.265625 -1.328125 -1.265625 -3.734375q0 -2.484375 1.265625 -3.859375q1.28125 -1.375 3.328125 -1.375q1.984375 0 3.234375 1.34375q1.25 1.34375 1.25 3.796875q0 0.140625 -0.015625 0.4375l-7.34375 0q0.09375 1.625 0.921875 2.484375q0.828125 0.859375 2.0625 0.859375q0.90625 0 1.546875 -0.46875q0.65625 -0.484375 1.046875 -1.546875zm-5.484375 -2.703125l5.5 0q-0.109375 -1.234375 -0.625 -1.859375q-0.796875 -0.96875 -2.078125 -0.96875q-1.140625 0 -1.9375 0.78125q-0.78125 0.765625 -0.859375 2.046875zm9.031921 9.671875l-0.171875 -1.5625q0.546875 0.140625 0.953125 0.140625q0.546875 0 0.875 -0.1875q0.34375 -0.1875 0.5625 -0.515625q0.15625 -0.25 0.5 -1.25q0.046875 -0.140625 0.15625 -0.40625l-3.734375 -9.875l1.796875 0l2.046875 5.71875q0.40625 1.078125 0.71875 2.28125q0.28125 -1.15625 0.6875 -2.25l2.09375 -5.75l1.671875 0l-3.75 10.03125q-0.59375 1.625 -0.9375 2.234375q-0.4375 0.828125 -1.015625 1.203125q-0.578125 0.390625 -1.375 0.390625q-0.484375 0 -1.078125 -0.203125zm8.734375 -6.734375l1.65625 -0.265625q0.140625 1.0 0.765625 1.53125q0.640625 0.515625 1.78125 0.515625q1.15625 0 1.703125 -0.46875q0.5625 -0.46875 0.5625 -1.09375q0 -0.5625 -0.484375 -0.890625q-0.34375 -0.21875 -1.703125 -0.5625q-1.84375 -0.46875 -2.5625 -0.796875q-0.703125 -0.34375 -1.078125 -0.9375q-0.359375 -0.609375 -0.359375 -1.328125q0 -0.65625 0.296875 -1.21875q0.3125 -0.5625 0.828125 -0.9375q0.390625 -0.28125 1.0625 -0.484375q0.671875 -0.203125 1.4375 -0.203125q1.171875 0 2.046875 0.34375q0.875 0.328125 1.28125 0.90625q0.421875 0.5625 0.578125 1.515625l-1.625 0.21875q-0.109375 -0.75 -0.65625 -1.171875q-0.53125 -0.4375 -1.5 -0.4375q-1.15625 0 -1.640625 0.390625q-0.484375 0.375 -0.484375 0.875q0 0.328125 0.203125 0.59375q0.203125 0.265625 0.640625 0.4375q0.25 0.09375 1.46875 0.4375q1.765625 0.46875 2.46875 0.765625q0.703125 0.296875 1.09375 0.875q0.40625 0.578125 0.40625 1.4375q0 0.828125 -0.484375 1.578125q-0.484375 0.734375 -1.40625 1.140625q-0.921875 0.390625 -2.078125 0.390625q-1.921875 0 -2.9375 -0.796875q-1.0 -0.796875 -1.28125 -2.359375zm10.46875 -5.015625l0 -1.90625l1.90625 0l0 1.90625l-1.90625 0zm0 7.953125l0 -1.90625l1.90625 0l0 1.90625l-1.90625 0z" fill-rule="nonzero"></path><path fill="#38761d" d="m607.76904 297.0l121.00787 0l0 48.0l-121.00787 0z" fill-rule="nonzero"></path><path fill="#000000" d="m617.5659 320.32623l1.671875 -0.21875q0.28125 1.421875 0.96875 2.046875q0.703125 0.625 1.6875 0.625q1.1875 0 2.0 -0.8125q0.8125 -0.828125 0.8125 -2.03125q0 -1.140625 -0.765625 -1.890625q-0.75 -0.75 -1.90625 -0.75q-0.46875 0 -1.171875 0.1875l0.1875 -1.46875q0.15625 0.015625 0.265625 0.015625q1.0625 0 1.90625 -0.546875q0.859375 -0.5625 0.859375 -1.71875q0 -0.921875 -0.625 -1.515625q-0.609375 -0.609375 -1.59375 -0.609375q-0.96875 0 -1.625 0.609375q-0.640625 0.609375 -0.828125 1.84375l-1.671875 -0.296875q0.296875 -1.6875 1.375 -2.609375q1.09375 -0.921875 2.71875 -0.921875q1.109375 0 2.046875 0.484375q0.9375 0.46875 1.421875 1.296875q0.5 0.828125 0.5 1.75q0 0.890625 -0.46875 1.609375q-0.46875 0.71875 -1.40625 1.15625q1.21875 0.265625 1.875 1.15625q0.671875 0.875 0.671875 2.1875q0 1.78125 -1.296875 3.015625q-1.296875 1.234375 -3.28125 1.234375q-1.796875 0 -2.984375 -1.0625q-1.171875 -1.0625 -1.34375 -2.765625z" fill-rule="nonzero"></path><path fill="#000000" fill-opacity="0.0" d="m205.98425 220.0l169.00787 0l0 68.0l-169.00787 0z" fill-rule="nonzero"></path><path fill="#000000" d="m214.953 246.92l5.234375 -13.59375l1.9375 0l5.5625 13.59375l-2.046875 0l-1.59375 -4.125l-5.6875 0l-1.484375 4.125l-1.921875 0zm3.921875 -5.578125l4.609375 0l-1.40625 -3.78125q-0.65625 -1.703125 -0.96875 -2.8125q-0.265625 1.3125 -0.734375 2.59375l-1.5 4.0zm9.771698 5.578125l0 -13.59375l1.671875 0l0 13.59375l-1.671875 0zm4.144821 0l0 -13.59375l1.671875 0l0 13.59375l-1.671875 0zm3.5510712 -4.921875q0 -2.734375 1.53125 -4.0625q1.265625 -1.09375 3.09375 -1.09375q2.03125 0 3.3125 1.34375q1.296875 1.328125 1.296875 3.671875q0 1.90625 -0.578125 3.0q-0.5625 1.078125 -1.65625 1.6875q-1.078125 0.59375 -2.375 0.59375q-2.0625 0 -3.34375 -1.328125q-1.28125 -1.328125 -1.28125 -3.8125zm1.71875 0q0 1.890625 0.828125 2.828125q0.828125 0.9375 2.078125 0.9375q1.25 0 2.0625 -0.9375q0.828125 -0.953125 0.828125 -2.890625q0 -1.828125 -0.828125 -2.765625q-0.828125 -0.9375 -2.0625 -0.9375q-1.25 0 -2.078125 0.9375q-0.828125 0.9375 -0.828125 2.828125zm15.719467 1.3125l1.640625 0.21875q-0.265625 1.6875 -1.375 2.65625q-1.109375 0.953125 -2.734375 0.953125q-2.015625 0 -3.25 -1.3125q-1.21875 -1.328125 -1.21875 -3.796875q0 -1.59375 0.515625 -2.78125q0.53125 -1.203125 1.609375 -1.796875q1.09375 -0.609375 2.359375 -0.609375q1.609375 0 2.625 0.8125q1.015625 0.8125 1.3125 2.3125l-1.625 0.25q-0.234375 -1.0 -0.828125 -1.5q-0.59375 -0.5 -1.421875 -0.5q-1.265625 0 -2.0625 0.90625q-0.78125 0.90625 -0.78125 2.859375q0 1.984375 0.765625 2.890625q0.765625 0.890625 1.984375 0.890625q0.984375 0 1.640625 -0.59375q0.65625 -0.609375 0.84375 -1.859375zm9.32811 2.390625q-0.9375 0.796875 -1.796875 1.125q-0.859375 0.3125 -1.84375 0.3125q-1.609375 0 -2.484375 -0.78125q-0.875 -0.796875 -0.875 -2.03125q0 -0.734375 0.328125 -1.328125q0.328125 -0.59375 0.859375 -0.953125q0.53125 -0.359375 1.203125 -0.546875q0.5 -0.140625 1.484375 -0.25q2.03125 -0.25 2.984375 -0.578125q0 -0.34375 0 -0.4375q0 -1.015625 -0.46875 -1.4375q-0.640625 -0.5625 -1.90625 -0.5625q-1.171875 0 -1.734375 0.40625q-0.5625 0.40625 -0.828125 1.46875l-1.640625 -0.234375q0.234375 -1.046875 0.734375 -1.6875q0.515625 -0.640625 1.46875 -0.984375q0.96875 -0.359375 2.25 -0.359375q1.265625 0 2.046875 0.296875q0.78125 0.296875 1.15625 0.75q0.375 0.453125 0.515625 1.140625q0.09375 0.421875 0.09375 1.53125l0 2.234375q0 2.328125 0.09375 2.953125q0.109375 0.609375 0.4375 1.171875l-1.75 0q-0.265625 -0.515625 -0.328125 -1.21875zm-0.140625 -3.71875q-0.90625 0.359375 -2.734375 0.625q-1.03125 0.140625 -1.453125 0.328125q-0.421875 0.1875 -0.65625 0.546875q-0.234375 0.359375 -0.234375 0.796875q0 0.671875 0.5 1.125q0.515625 0.4375 1.484375 0.4375q0.96875 0 1.71875 -0.421875q0.75 -0.4375 1.109375 -1.15625q0.265625 -0.578125 0.265625 -1.671875l0 -0.609375zm7.7351074 3.4375l0.234375 1.484375q-0.703125 0.140625 -1.265625 0.140625q-0.90625 0 -1.40625 -0.28125q-0.5 -0.296875 -0.703125 -0.75q-0.203125 -0.46875 -0.203125 -1.984375l0 -5.65625l-1.234375 0l0 -1.3125l1.234375 0l0 -2.4375l1.65625 -1.0l0 3.4375l1.6875 0l0 1.3125l-1.6875 0l0 5.75q0 0.71875 0.078125 0.921875q0.09375 0.203125 0.296875 0.328125q0.203125 0.125 0.578125 0.125q0.265625 0 0.734375 -0.078125zm1.5426636 -10.1875l0 -1.90625l1.671875 0l0 1.90625l-1.671875 0zm0 11.6875l0 -9.859375l1.671875 0l0 9.859375l-1.671875 0zm3.5042114 -4.921875q0 -2.734375 1.53125 -4.0625q1.265625 -1.09375 3.09375 -1.09375q2.03125 0 3.3125 1.34375q1.296875 1.328125 1.296875 3.671875q0 1.90625 -0.578125 3.0q-0.5625 1.078125 -1.65625 1.6875q-1.078125 0.59375 -2.375 0.59375q-2.0625 0 -3.34375 -1.328125q-1.28125 -1.328125 -1.28125 -3.8125zm1.71875 0q0 1.890625 0.828125 2.828125q0.828125 0.9375 2.078125 0.9375q1.25 0 2.0625 -0.9375q0.828125 -0.953125 0.828125 -2.890625q0 -1.828125 -0.828125 -2.765625q-0.828125 -0.9375 -2.0625 -0.9375q-1.25 0 -2.078125 0.9375q-0.828125 0.9375 -0.828125 2.828125zm9.281952 4.921875l0 -9.859375l1.5 0l0 1.40625q1.09375 -1.625 3.140625 -1.625q0.890625 0 1.640625 0.328125q0.75 0.3125 1.109375 0.84375q0.375 0.515625 0.53125 1.21875q0.09375 0.46875 0.09375 1.625l0 6.0625l-1.671875 0l0 -6.0q0 -1.015625 -0.203125 -1.515625q-0.1875 -0.515625 -0.6875 -0.8125q-0.5 -0.296875 -1.171875 -0.296875q-1.0625 0 -1.84375 0.671875q-0.765625 0.671875 -0.765625 2.578125l0 5.375l-1.671875 0zm9.703857 -2.9375l1.65625 -0.265625q0.140625 1.0 0.765625 1.53125q0.640625 0.515625 1.78125 0.515625q1.15625 0 1.703125 -0.46875q0.5625 -0.46875 0.5625 -1.09375q0 -0.5625 -0.484375 -0.890625q-0.34375 -0.21875 -1.703125 -0.5625q-1.84375 -0.46875 -2.5625 -0.796875q-0.703125 -0.34375 -1.078125 -0.9375q-0.359375 -0.609375 -0.359375 -1.328125q0 -0.65625 0.296875 -1.21875q0.3125 -0.5625 0.828125 -0.9375q0.390625 -0.28125 1.0625 -0.484375q0.671875 -0.203125 1.4375 -0.203125q1.171875 0 2.046875 0.34375q0.875 0.328125 1.28125 0.90625q0.421875 0.5625 0.578125 1.515625l-1.625 0.21875q-0.109375 -0.75 -0.65625 -1.171875q-0.53125 -0.4375 -1.5 -0.4375q-1.15625 0 -1.640625 0.390625q-0.484375 0.375 -0.484375 0.875q0 0.328125 0.203125 0.59375q0.203125 0.265625 0.640625 0.4375q0.25 0.09375 1.46875 0.4375q1.765625 0.46875 2.46875 0.765625q0.703125 0.296875 1.09375 0.875q0.40625 0.578125 0.40625 1.4375q0 0.828125 -0.484375 1.578125q-0.484375 0.734375 -1.40625 1.140625q-0.921875 0.390625 -2.078125 0.390625q-1.921875 0 -2.9375 -0.796875q-1.0 -0.796875 -1.28125 -2.359375zm14.542664 -1.140625l0 -1.6875l5.125 0l0 1.6875l-5.125 0zm15.650177 -1.875l-9.0 3.859375l0 -1.65625l7.125 -2.96875l-7.125 -2.9375l0 -1.65625l9.0 3.8125l0 1.546875z" fill-rule="nonzero"></path><path fill="#000000" d="m219.42175 272.91998q-1.375 -1.75 -2.328125 -4.078125q-0.953125 -2.34375 -0.953125 -4.84375q0 -2.21875 0.703125 -4.234375q0.84375 -2.34375 2.578125 -4.6718597l1.203125 0q-1.125 1.9218597 -1.484375 2.7499847q-0.5625 1.28125 -0.890625 2.671875q-0.40625 1.734375 -0.40625 3.484375q0 4.46875 2.78125 8.921875l-1.203125 0zm3.025177 -4.0l0 -9.859375l1.5 0l0 1.40625q1.09375 -1.625 3.140625 -1.625q0.890625 0 1.640625 0.328125q0.75 0.3125 1.109375 0.84375q0.375 0.515625 0.53125 1.21875q0.09375 0.46875 0.09375 1.625l0 6.0625l-1.671875 0l0 -6.0q0 -1.015625 -0.203125 -1.515625q-0.1875 -0.515625 -0.6875 -0.8125q-0.5 -0.296875 -1.171875 -0.296875q-1.0625 0 -1.84375 0.671875q-0.765625 0.671875 -0.765625 2.578125l0 5.375l-1.671875 0zm9.750717 -4.921875q0 -2.734375 1.53125 -4.0625q1.265625 -1.09375 3.09375 -1.09375q2.03125 0 3.3125 1.34375q1.296875 1.328125 1.296875 3.671875q0 1.90625 -0.578125 3.0q-0.5625 1.078125 -1.65625 1.6875q-1.078125 0.59375 -2.375 0.59375q-2.0625 0 -3.34375 -1.328125q-1.28125 -1.328125 -1.28125 -3.8125zm1.71875 0q0 1.890625 0.828125 2.828125q0.828125 0.9375 2.078125 0.9375q1.25 0 2.0625 -0.9375q0.828125 -0.953125 0.828125 -2.890625q0 -1.828125 -0.828125 -2.765625q-0.828125 -0.9375 -2.0625 -0.9375q-1.25 0 -2.078125 0.9375q-0.828125 0.9375 -0.828125 2.828125zm12.938217 3.421875l0.234375 1.484375q-0.703125 0.140625 -1.265625 0.140625q-0.90625 0 -1.40625 -0.28125q-0.5 -0.296875 -0.703125 -0.75q-0.203125 -0.46875 -0.203125 -1.984375l0 -5.65625l-1.234375 0l0 -1.3125l1.234375 0l0 -2.4375l1.65625 -0.99998474l0 3.4374847l1.6875 0l0 1.3125l-1.6875 0l0 5.75q0 0.71875 0.078125 0.921875q0.09375 0.203125 0.296875 0.328125q0.203125 0.125 0.578125 0.125q0.265625 0 0.734375 -0.078125zm13.147858 0.28125q-0.9375 0.796875 -1.796875 1.125q-0.859375 0.3125 -1.84375 0.3125q-1.609375 0 -2.484375 -0.78125q-0.875 -0.796875 -0.875 -2.03125q0 -0.734375 0.328125 -1.328125q0.328125 -0.59375 0.859375 -0.953125q0.53125 -0.359375 1.203125 -0.546875q0.5 -0.140625 1.484375 -0.25q2.03125 -0.25 2.984375 -0.578125q0 -0.34375 0 -0.4375q0 -1.015625 -0.46875 -1.4375q-0.640625 -0.5625 -1.90625 -0.5625q-1.171875 0 -1.734375 0.40625q-0.5625 0.40625 -0.828125 1.46875l-1.640625 -0.234375q0.234375 -1.046875 0.734375 -1.6875q0.515625 -0.640625 1.46875 -0.984375q0.96875 -0.359375 2.25 -0.359375q1.265625 0 2.046875 0.296875q0.78125 0.296875 1.15625 0.75q0.375 0.453125 0.515625 1.140625q0.09375 0.421875 0.09375 1.53125l0 2.234375q0 2.328125 0.09375 2.953125q0.109375 0.609375 0.4375 1.171875l-1.75 0q-0.265625 -0.515625 -0.328125 -1.21875zm-0.140625 -3.71875q-0.90625 0.359375 -2.734375 0.625q-1.03125 0.140625 -1.453125 0.328125q-0.421875 0.1875 -0.65625 0.546875q-0.234375 0.359375 -0.234375 0.796875q0 0.671875 0.5 1.125q0.515625 0.4375 1.484375 0.4375q0.96875 0 1.71875 -0.421875q0.75 -0.4375 1.109375 -1.15625q0.265625 -0.578125 0.265625 -1.671875l0 -0.609375zm4.047577 4.9375l0 -13.593735l1.671875 0l0 13.593735l-1.671875 0zm4.1917114 -11.6875l0 -1.9062347l1.671875 0l0 1.9062347l-1.671875 0zm0 11.6875l0 -9.859375l1.671875 0l0 9.859375l-1.671875 0zm3.832306 0.8125l1.609375 0.25q0.109375 0.75 0.578125 1.09375q0.609375 0.453125 1.6875 0.453125q1.171875 0 1.796875 -0.46875q0.625 -0.453125 0.859375 -1.28125q0.125 -0.515625 0.109375 -2.15625q-1.09375 1.296875 -2.71875 1.296875q-2.03125 0 -3.15625 -1.46875q-1.109375 -1.46875 -1.109375 -3.515625q0 -1.40625 0.515625 -2.59375q0.515625 -1.203125 1.484375 -1.84375q0.96875 -0.65625 2.265625 -0.65625q1.75 0 2.875 1.40625l0 -1.1875l1.546875 0l0 8.515625q0 2.3125 -0.46875 3.265625q-0.46875 0.96875 -1.484375 1.515625q-1.015625 0.5625 -2.5 0.5625q-1.765625 0 -2.859375 -0.796875q-1.078125 -0.796875 -1.03125 -2.390625zm1.375 -5.921875q0 1.953125 0.765625 2.84375q0.78125 0.890625 1.9375 0.890625q1.140625 0 1.921875 -0.890625q0.78125 -0.890625 0.78125 -2.78125q0 -1.8125 -0.8125 -2.71875q-0.796875 -0.921875 -1.921875 -0.921875q-1.109375 0 -1.890625 0.90625q-0.78125 0.890625 -0.78125 2.671875zm9.297607 5.109375l0 -9.859375l1.5 0l0 1.40625q1.09375 -1.625 3.140625 -1.625q0.890625 0 1.640625 0.328125q0.75 0.3125 1.109375 0.84375q0.375 0.515625 0.53125 1.21875q0.09375 0.46875 0.09375 1.625l0 6.0625l-1.671875 0l0 -6.0q0 -1.015625 -0.203125 -1.515625q-0.1875 -0.515625 -0.6875 -0.8125q-0.5 -0.296875 -1.171875 -0.296875q-1.0625 0 -1.84375 0.671875q-0.765625 0.671875 -0.765625 2.578125l0 5.375l-1.671875 0zm17.125702 -3.171875l1.71875 0.21875q-0.40625 1.5 -1.515625 2.34375q-1.09375 0.828125 -2.8125 0.828125q-2.15625 0 -3.421875 -1.328125q-1.265625 -1.328125 -1.265625 -3.734375q0 -2.484375 1.265625 -3.859375q1.28125 -1.375 3.328125 -1.375q1.984375 0 3.234375 1.34375q1.25 1.34375 1.25 3.796875q0 0.140625 -0.015625 0.4375l-7.34375 0q0.09375 1.625 0.921875 2.484375q0.828125 0.859375 2.0625 0.859375q0.90625 0 1.546875 -0.46875q0.65625 -0.484375 1.046875 -1.546875zm-5.484375 -2.703125l5.5 0q-0.109375 -1.234375 -0.625 -1.859375q-0.796875 -0.96875 -2.078125 -0.96875q-1.140625 0 -1.9375 0.78125q-0.78125 0.765625 -0.859375 2.046875zm15.500732 5.875l0 -1.25q-0.9375 1.46875 -2.75 1.46875q-1.171875 0 -2.171875 -0.640625q-0.984375 -0.65625 -1.53125 -1.8125q-0.53125 -1.171875 -0.53125 -2.6875q0 -1.46875 0.484375 -2.671875q0.5 -1.203125 1.46875 -1.84375q0.984375 -0.640625 2.203125 -0.640625q0.890625 0 1.578125 0.375q0.703125 0.375 1.140625 0.984375l0 -4.8749847l1.65625 0l0 13.593735l-1.546875 0zm-5.28125 -4.921875q0 1.890625 0.796875 2.828125q0.8125 0.9375 1.890625 0.9375q1.09375 0 1.859375 -0.890625q0.765625 -0.890625 0.765625 -2.734375q0 -2.015625 -0.78125 -2.953125q-0.78125 -0.953125 -1.921875 -0.953125q-1.109375 0 -1.859375 0.90625q-0.75 0.90625 -0.75 2.859375zm10.360077 8.921875l-1.1875 0q2.765625 -4.453125 2.765625 -8.921875q0 -1.734375 -0.390625 -3.453125q-0.328125 -1.390625 -0.890625 -2.671875q-0.359375 -0.84375 -1.484375 -2.7812347l1.1875 0q1.75 2.3281097 2.578125 4.6718597q0.71875 2.015625 0.71875 4.234375q0 2.5 -0.96875 4.84375q-0.953125 2.328125 -2.328125 4.078125z" fill-rule="nonzero"></path></g></svg>

